<?xml version="1.0" encoding="UTF-8"?>
<svg id="Camada_2" data-name="Camada 2" xmlns="http://www.w3.org/2000/svg" xmlns:xlink="http://www.w3.org/1999/xlink" viewBox="0 0 425.34 82.38">
  <defs>
    <style>
      .cls-1 {
        fill: url(#linear-gradient-8);
      }

      .cls-2 {
        fill: url(#linear-gradient-7);
      }

      .cls-3 {
        fill: url(#linear-gradient-5);
      }

      .cls-4 {
        fill: url(#linear-gradient-6);
      }

      .cls-5 {
        fill: url(#linear-gradient-4);
      }

      .cls-6 {
        fill: url(#linear-gradient-3);
      }

      .cls-7 {
        fill: url(#linear-gradient-2);
      }

      .cls-8 {
        fill: url(#linear-gradient);
      }
    </style>
    <linearGradient id="linear-gradient" x1="-23.84" y1="39.73" x2="424.93" y2="56.82" gradientUnits="userSpaceOnUse">
      <stop offset="0" stop-color="#f6d63a"/>
      <stop offset=".45" stop-color="#ea5d45"/>
      <stop offset=".88" stop-color="#7e3066"/>
    </linearGradient>
    <linearGradient id="linear-gradient-2" x1="-23.76" y1="37.76" x2="425.01" y2="54.84" xlink:href="#linear-gradient"/>
    <linearGradient id="linear-gradient-3" x1="-23.65" y1="34.88" x2="425.12" y2="51.96" xlink:href="#linear-gradient"/>
    <linearGradient id="linear-gradient-4" x1="-23.58" y1="32.86" x2="425.19" y2="49.94" xlink:href="#linear-gradient"/>
    <linearGradient id="linear-gradient-5" x1="-23.5" y1="30.92" x2="425.27" y2="48.01" xlink:href="#linear-gradient"/>
    <linearGradient id="linear-gradient-6" x1="-23.26" y1="24.68" x2="425.51" y2="41.77" xlink:href="#linear-gradient"/>
    <linearGradient id="linear-gradient-7" x1="-23.32" y1="26.06" x2="425.45" y2="43.14" xlink:href="#linear-gradient"/>
    <linearGradient id="linear-gradient-8" x1="-23.41" y1="28.45" x2="425.36" y2="45.53" xlink:href="#linear-gradient"/>
  </defs>
  <g id="Camada_1-2" data-name="Camada 1">
    <g>
      <path class="cls-8" d="M25.44,43.92c-1.45-2.41-3.36-5.32-5.73-8.74-2.89-4.16-5.05-7.64-6.46-10.46-1.41-2.82-2.12-5.86-2.12-9.13s.5-5.66,1.5-7.18c1-1.52,2.47-2.28,4.4-2.28,1.56,0,2.88.67,3.95,2,1.07,1.34,2.06,3.41,2.95,6.23.89,2.82,1.93,6.94,3.12,12.36h.22V3.34c-1.34-.74-2.78-1.3-4.34-1.67-1.56-.37-3.45-.56-5.68-.56-5.42,0-9.65,1.86-12.69,5.57C1.52,10.39,0,15.21,0,21.15c0,5.42.87,10.06,2.62,13.91,1.74,3.86,4.29,8.16,7.63,12.91,2.97,4.16,5.16,7.74,6.57,10.74,1.41,3.01,2.12,6.44,2.12,10.3,0,2.3-.46,4.08-1.39,5.34-.93,1.26-2.32,1.89-4.17,1.89-2.08,0-3.84-.8-5.29-2.39-1.45-1.59-2.8-4.38-4.06-8.35-1.26-3.97-2.52-9.67-3.78-17.09h-.22v30.61c1.78.82,3.62,1.39,5.51,1.73,1.89.33,3.95.5,6.18.5,4.45,0,8.11-.95,10.96-2.84,2.86-1.89,4.9-4.29,6.12-7.18,1.22-2.89,1.84-5.86,1.84-8.91,0-3.64-.5-7.01-1.5-10.13-1-3.12-2.23-5.88-3.67-8.29Z"/>
      <path class="cls-7" d="M93.73,52.32l-2.23-10.65,2.34-11.62c.22-1.11.45-2.23.67-3.34,1.11-5.94,2.06-10.56,2.84-13.86.78-3.3,1.8-6.77,3.06-10.41v-.22h-9.35v.22c.7,3.63-.15,11.99-2.54,25.08-1.7-8.13-2.78-14.53-3.25-19.18-.37-3.04-.41-5.01-.11-5.9v-.22h-17.7v.22c.96,1.04,2.19,4.16,3.67,9.35,1.48,5.2,3.01,11.28,4.56,18.26l1.65,7.43-2.99,14.84-.67,3.34c-1.11,5.94-2.06,10.56-2.84,13.86-.73,3.09-1.68,6.34-2.83,9.72-.76-1.45-1.54-4.39-2.34-8.83-.97-5.3-1.82-11.34-2.56-18.09L57.33,2.23h-16.59v.22c.82,2,1.26,4.64,1.34,7.9.07,3.27-.24,8.02-.95,14.25-.71,6.23-1.91,15.47-3.62,27.72-.89,5.94-1.71,10.98-2.45,15.14-.74,4.16-1.67,8.31-2.78,12.47v.22h9.35v-.22c-.59-2.6-.74-5.84-.45-9.74.13-1.71.31-3.59.52-5.62h9.7c.23,3.28.36,6.44.36,9.46,0,2.6-.19,4.56-.56,5.9v.22h25.94v-.22c-.74-3.86.26-13.06,3.01-27.61l.11-.56.11.56c2.15,10.69,3.41,17.92,3.78,21.71.15,2.45.15,4.42,0,5.9v.22h17.81v-.22c-.97-1.04-2.25-4.3-3.84-9.8-1.6-5.49-3.06-11.43-4.4-17.81ZM42.29,59.56c.14-1.15.29-2.33.46-3.56l.56-3.67,3.67-28.28h.22l3.12,28.28c.15,1.19.28,2.38.39,3.56.11,1.19.2,2.41.28,3.67h-8.7Z"/>
      <path class="cls-6" d="M161.91,5.57c-6.5-3.71-13.49-5.57-20.98-5.57s-14.19,1.84-20.32,5.51c-6.12,3.67-10.95,8.67-14.47,14.97-3.53,6.31-5.29,13.21-5.29,20.7s1.93,14.29,5.79,20.59c3.86,6.31,9.03,11.32,15.53,15.03,6.49,3.71,13.49,5.57,20.98,5.57s14.19-1.84,20.32-5.51c6.12-3.67,10.95-8.66,14.47-14.97,3.52-6.31,5.29-13.21,5.29-20.71s-1.93-14.29-5.79-20.59c-3.86-6.31-9.04-11.32-15.53-15.03ZM169.98,61.23c-1.71,3.19-4.19,5.66-7.46,7.4-3.27,1.74-7.12,2.62-11.58,2.62-6.53,0-12.84-1.85-18.92-5.57-6.09-3.71-11.02-8.59-14.81-14.64-3.79-6.05-5.68-12.3-5.68-18.76,0-4.23.85-7.94,2.56-11.13,1.71-3.19,4.19-5.66,7.46-7.4,3.26-1.74,7.12-2.62,11.58-2.62,6.53,0,12.84,1.86,18.92,5.57,6.08,3.71,11.02,8.59,14.81,14.64,3.78,6.05,5.68,12.3,5.68,18.76,0,4.23-.85,7.94-2.56,11.13Z"/>
      <path class="cls-5" d="M202.15,2.23h-14.47v.22c.74,1.04,1.3,4.19,1.67,9.46.37,5.27.56,11.32.56,18.14v22.26c0,6.83-.19,12.88-.56,18.14-.37,5.27-.93,8.42-1.67,9.46v.22h16.7v-.22c-.74-1.04-1.3-4.03-1.67-8.96-.37-4.93-.56-10.78-.56-17.53,7.12-2.23,12.43-5.62,15.92-10.19,3.49-4.56,5.23-10.59,5.23-18.09s-1.87-13.01-5.62-16.98c-3.75-3.97-8.92-5.95-15.53-5.95ZM207.94,40.69c-1.34,3.53-3.27,6.1-5.79,7.74V7.24c2.52,1.11,4.45,3.47,5.79,7.07,1.34,3.6,2,8.15,2,13.64,0,4.97-.67,9.22-2,12.75Z"/>
      <path class="cls-3" d="M248.9,2.45c.74,1.04,1.3,4.19,1.67,9.46.37,5.27.56,11.32.56,18.14v7.24h-10.02v-7.24c0-6.83.18-12.87.56-18.14.37-5.27.93-8.42,1.67-9.46v-.22h-16.7v.22c.74,1.04,1.3,4.19,1.67,9.46.37,5.27.56,11.32.56,18.14v22.26c0,6.83-.19,12.88-.56,18.14-.37,5.27-.93,8.42-1.67,9.46v.22h16.7v-.22c-.74-1.04-1.3-4.19-1.67-9.46-.37-5.27-.56-11.32-.56-18.14v-10.02h10.02v10.02c0,6.83-.19,12.88-.56,18.14-.37,5.27-.93,8.42-1.67,9.46v.22h16.7v-.22c-.74-1.04-1.3-4.19-1.67-9.46-.37-5.27-.56-11.32-.56-18.14v-22.26c0-6.83.18-12.87.56-18.14.37-5.27.93-8.42,1.67-9.46v-.22h-16.7v.22Z"/>
      <path class="cls-4" d="M425.12,60.67c-.82,4.38-2.56,7.89-5.23,10.52-2.67,2.64-5.68,3.95-9.02,3.95v-31.73c2,0,4.12.97,6.35,2.89,2.23,1.93,3.75,4.12,4.56,6.57h.22v-23.93h-.22c-.82,2.45-2.34,4.64-4.56,6.57-2.23,1.93-4.34,2.89-6.35,2.89V7.24c2.82,0,5.51,1.34,8.07,4.01s4.25,6.16,5.06,10.46h.22V2.23h-27.83v.22c.74,1.04,1.3,4.19,1.67,9.46.37,5.27.56,11.32.56,18.14v22.26c0,6.83-.19,12.88-.56,18.14-.37,5.27-.93,8.42-1.67,9.46v.22h28.94v-19.48h-.22Z"/>
      <path class="cls-2" d="M378.03,2.45c2.3,2.67,3.8,6.18,4.51,10.52.7,4.34,1.06,10.04,1.06,17.09v12.24h-.22l-7.12-14.47c-4.9-9.72-8.57-18.26-11.02-25.6h-10.58v.22c2.6,4.68,3.9,13.14,3.9,25.38v24.49c0,6.83-.19,12.88-.56,18.14-.37,5.27-.93,8.42-1.67,9.46v.22h15.58v-.22c-3.27-2.52-5.38-5.96-6.35-10.3-.97-4.34-1.45-10.11-1.45-17.31v-17.48h.22l9.02,17.48c6.01,11.65,10.17,21.3,12.47,28.94h3.9V30.06c0-6.83.18-12.87.56-18.14.37-5.27.93-8.42,1.67-9.46v-.22h-13.91v.22Z"/>
      <path class="cls-1" d="M331.11,5.57c-6.5-3.71-13.49-5.57-20.98-5.57s-14.19,1.84-20.32,5.51c-6.12,3.67-10.95,8.67-14.47,14.97-3.53,6.31-5.29,13.21-5.29,20.7s1.93,14.29,5.79,20.59c3.86,6.31,9.03,11.32,15.53,15.03,6.49,3.71,13.49,5.57,20.98,5.57s14.19-1.84,20.32-5.51,10.95-8.66,14.47-14.97c3.52-6.31,5.29-13.21,5.29-20.71s-1.93-14.29-5.79-20.59c-3.86-6.31-9.04-11.32-15.53-15.03ZM339.18,61.23c-1.71,3.19-4.19,5.66-7.46,7.4-3.27,1.74-7.12,2.62-11.58,2.62-6.53,0-12.84-1.85-18.92-5.57-6.09-3.71-11.02-8.59-14.81-14.64-3.79-6.05-5.68-12.3-5.68-18.76,0-4.23.85-7.94,2.56-11.13,1.71-3.19,4.19-5.66,7.46-7.4,3.26-1.74,7.12-2.62,11.58-2.62,6.53,0,12.84,1.86,18.92,5.57,6.08,3.71,11.02,8.59,14.81,14.64,3.78,6.05,5.68,12.3,5.68,18.76,0,4.23-.85,7.94-2.56,11.13Z"/>
    </g>
  </g>
</svg>