<?xml version="1.0" encoding="UTF-8"?>
<svg id="Camada_2" data-name="Camada 2" xmlns="http://www.w3.org/2000/svg" viewBox="0 0 355.68 183.82">
  <defs>
    <style>
      .cls-1 {
        fill: #fff;
      }

      .cls-2 {
        fill: #006eb8;
      }
    </style>
  </defs>
  <g id="Layer_1" data-name="Layer 1">
    <g>
      <g>
        <path class="cls-2" d="M354.66,64.8c.42-.53.78-.02,1.02,0-.09.48-1.42-.15-1.61-.11.12.05,1.07-.31.59.11"/>
        <path class="cls-2" d="M87.1,177.85c-.21.31-.51.54-.62.95.59.03.53-.27.62-.95M191.45,74.11c.65-.6,1.18-.77,1.5-1.6.34-.93.72-1.84,1.13-2.71.82-1.87,1.75-3.8,2.03-5.83-.59-.02-1.18.12-1.72.31-1.01.35-1.26.41-1.18,1.36.03.63-.31,1.22-.58,1.78-.41.86-.4,1.78-.65,2.64,0,.27-.43,1.84-.69,2.45-.38.78-.11.62-.19,1.37-.04.4.31.4.35.24M206.24,63.67c-1.23-.7-2.45,2.71-2.74,3.41-.1.28.1.96.51.65.44-.3.54-.7.78-1.26.38-.96.8-1.92,1.45-2.8M194.64,61.8c.22.61,2.13.14,2.38-.28.75-1.17-2.44,0-2.38.28M199.01,57.89c1.24.13,1.76-1.29,2.48-1.96-1.06-.39-2.68,1.02-2.48,1.96M196.43,55.8c-.43,1.22-1.37,2.49-1.15,3.84,1.26-.15,1.99-.63,2.5-1.71.22-.48.36-.97.29-1.5-.16-.98-.82-.63-1.63-.63M203.56,56.12c1.95.66-.41-1.93,0,0M154.64,64.91c.03-.41.13-1.17.51-1.84.31-.55.62-1.05.88-1.61.23-.44.57-.7.73-1.07.28-.79.43-1.81,1.15-2.27.77-.47,1.71-3.21,2.2-4.19-2.23-.91-2.53,3.74-3.31,4.78-.22.08-.41.2-.61.3-.26.39-.06.77-.4,1.2-.49.63-.69,1.95-1.34,2.3-.18.1-1.11,2.28-.95,2.39-.35-.27-.54.65-.49.76.17.52,1.21-1.11,1.7-.97-.13.02-.17.11-.08.21M197.13,53.24c.29-.04.76.35.84.41.45-.75.88-1.81.51-2.69-.65.57-1.15,1.44-1.35,2.28M151.51,49.82c1.15.69,2.11,1,3.4,1.29.55.13.96.34,1.39.63.73.54,1.03.56,1.22-.21.26-.93.53-1.66.69-2.73.2-1.44.1-2.96.46-4.37-.58,0-1.78-.26-1.94.26-.25.67-2.43.33-2.63-.35-1.22,1.1-2.88.96-3.95,2.31-.39.53-1,1.13-.52,1.73.52.61,1.24,1.02,1.88,1.44M105.5,46.41c-.85-.51-.77,1.67,0,.61.18.31.13.61-.13.85-.41-.08-.39.02.03.32-.25-.27-.53.2-.73-.22.42-.24-.02.02.23.09.25-.16-.15-.44-.3-.36.05.2.07.2.18.07-.41.34-.36,1.08-.5,1.53.14,0,.28-.06.39-.2-.19,0-.35.03-.46.2.1.05.75-.05.69-.2.16.29-.24.86-.54.9.12-.2.1-.42-.09-.61-.19.47-.17.55.2.77.48.28-.19,1.93-.31,2.38-.41,1.78-.86,3.52-1.2,5.31-.06.21-.78,3.06-.88,3.06.43.06-.48,1.72-.58,2-.27.94-.4,1.91-.23,2.83.76-.08,1.11-1,1.83-1.08,1.07-.15,1.54-1.68,2.39-2.43.44.8,1.12.3.85,1.37-.08.45.18,1.78-.52,1.85.02,1.79-1.2,4.9,1.51,2.64,1.55-1.3,3.19-3.99,5.13-1.78.68.75.93,1.47,1.11,2.43.14.63,1.69-.25,1.87-.48.57-.72,2.61-.48,2.14.69.73.68,1.67-.13,2.47.3.24-.7,1.03.12,1.41.07,1.86-.31,4.23.46,6.14.66.61.25,3.38,1.63,3.85.74.06-.12-.7-1.92-1-2.42-.77-1.24-.83-2.52-1.39-3.8-.58-1.35-1.74-2.11-2.23-3.5-.42-1.26-1.84-2.68-2.52-3.93-1.92-3.39-5.36-5.09-7.72-7.99-1.1-1.35-2.79-2.4-4.04-3.65-1.33-1.31-2.68-2.56-4.38-3.35-.42,1.3-1.26,2.72-1.73,3.82-.23.48-.48.45-.49,1.03-.03.66-.75-.27-.47-.51M159.28,52.19c.83.22,1.13.64,1.97.11,1.02-.68,1.67-.33,2.07.71,2.28-.18,4.54.65,6.85.59.44-.02.86.03,1.32.19.73.23.73-.08,1.35-.05.56.01,2.69.11,3.04.38.59.44,2.73-.02,3.5-.06,1.3,0,2.6.06,3.91.1,2.33.05,4.61-.24,6.9-.2,1.94.02,3.91.61,4.61-1.56.17-.62-.06-1.3.7-1.34.43-.04.1-.98.26-1.44.68-1.79,2.48-3.67,2.06-5.74-.41-2.09-3.28-3.15-5.13-3.45-1-.16-.77-.57-1.79-.57-1.22-.03-2.49-.03-3.71,0-2.36.07-4.69.21-7.06.41-2.09.2-4.02-.03-6.11.36-4.2.78-8.43,1.25-12.59,2.06-.41.08-.82.19-1.2.3.21.66.2,1.39.13,2.09-.06.52-.13,1.04-.16,1.52-.07.62-.44.9-.47,1.35.91,1.59-.87,2.83-.42,4.23M157.85,41.34c-.07,0-.34-3.13-.26-3.4.2-.54-.42-1.19-.71-1.6-.62-.94-.81-1.78-1-2.89-1.04-.96-2.04-2.34-3.35-.82-.57.69-1.11,1.38-1.77,2-.64.62-1.22,1.36-1.97,1.79-.93.57-1.23,2.57-1.7,3.46-.06.1-.83.81-.85.87-.55.81-.62,1.26-.84,2.15-.18.67-.34.47-.34,1.11-.01.67-.68.72-1.17.63-.81,1.94-2.03,3.74-2.38,5.84-.08.48-.11.94-.11,1.4-.27.26-.45.56-.51.92-1.07.2-.89.34-.93,1.37-1,.56-1.93,2.61-1.92,3.67.03,1.23-1.47,2.98-1.71,4.37-.24,1.45-.96,2.59-1.19,4.06-.12.63-.12.9-.57,1.43.29.75,0,1.46-.16,2.19-.18.7.07,1.29.07,1.96,0,.94.06,2.06.53,2.88.43.81.09,1.15,1.01,1.73.78.45,1.66.65,2.55.68,1.55.05,3.19-.36,4.59-1.06-.56-.02.32-.89.32-.89.62-.32,1.33-.24,1.95-.56.25-.22.48-.49.7-.71.29-.06.56-.14.82-.21.38-.25.66-.72.93-1.09.27-.34.58-.67.76-1.04.17-.28.2-.57.08-.86.31-.19.47-.48.47-.82,0-1.59.7-2.56,1.42-4.04.69-1.41,1.82-2.65,2.37-4.15.42-1.15.96-2.3,1.62-3.29.32-.47.29-.91.65-1.36.3-.33.67-.84.67-1.32,0-.31-.01-.12-.05-.54,0-.42.6-1.34.93-1.9-1.01-.5-2.31-.16-3.38-.7-.98-.47-2.17-.12-2.94-.91-.61-.62-1.6-.98-2.01-1.58-.84-1.09-1.25-1.93-.68-3.29.37-.98,1.13-1.93,2.16-2.27,1.13-.39,1.96-1.42,3.28-1.63.9-.17.82-.95,1.88-1.02.85-.06,2.08.17,2.73-.57M67.24,10.71c0-.57.88-.83,1.48-1.32.43-.41,1.39-1.07,1.88-1.21.21-.07.46-.16.7-.22.83-.15.47-.27,1.16-.7.66-.41,1.49-.43,2.05-1.01.56-.59,1.38-.55,2.03-1.22.71-.73,2.03-.99,2.95-1.47,1.05-.52,2.13-1.05,3.22-1.47.83-.33,1.33-.9,2.14-1.31,1.39-.72,3.35-1.13,4.81-.36,2.08,1.1-.21,3.62-.79,4.95-.83,1.93-2.11,3.7-3.18,5.55-.52.95-2.43,2.82-2.12,3.93-.9,0-1.92,2.63-2.29,3.35-.86,1.76-2.6,2.88-3.09,4.96-.83.3-1.11,1.21-1.66,1.82.15.91-.92,1.36-1.43,1.86.11.77-.71,1.22-.96,1.83-.27.71-.76,1.27-1.13,1.91-.41.68-.59,1.46-1,2.15-.21.3-.45.58-.7.81-.6.53-.44.75-.68,1.52-.31.93-1.09,1.26-1.37,2.13-.25.71-.85,1.23-1.04,2.01-.48,2.14-2.18,4.31-3.2,6.3-1,1.99-1.84,3.35-2.67,5.24,1.31-.89,1.9-1.97,2.95-3.12.42-.45.82-.84,1.22-1.28.62-.69.98-.84,1.77-1.32.53-.34.59-.74,1.18-1.02.67-.33,1.29-.75,1.93-1.12,1.2-.72,2.47-1.2,3.87-.94,0,.14-1.27.95-1.24.94,1.55-.47,3.9-1.08,4.5,1.01.67,2.31-.07,4.65-.44,6.96-.09.26-.23.46-.41.61.06.52-.03,1.02-.14,1.51-.27,1-.68,1.97-1.04,2.92-.16.4-.28.78-.42,1.2-.24.75-.7.75-.77,1.46-.09.92-.64,1.73-1.05,2.54.03.03,4.97-4.04,5.47-4.51.63-.65,1.41-.57,2.18-1.12.8-.55,1.17-.91,2.07-1.26,1.11-.48,1.9-1.7,3.16-.78,1.41.99.56,2.21.84,3.46.28,1.27-.64,3.59-1.08,4.81-.29.8-.64,1.53-1.05,2.29-.12.81-.25,1.79-.81,2.42-.22.27-1.24,2.76-1.08,3.26,1.77.17,3.8-3.38,4.47-4.44-.75.36.29-.53.5-.31.59-.55.87-1.37,1.36-1.99.2-.25.4-.44.69-.62.67-.4.18-.28.61-.84.44-.64.77-1.09,1.23-1.53.44-.48.8-1.25,1.24-1.81.56-.72.19-1.64.7-2.03.55-.41,1.47.29,1.47.83.05.92-.47,1.61-1,2.36-.33.44-.56,1.72-1.12,1.71-.32,1.12-1.14,1.77-1.43,2.79-.28,1.09-.76,2.17-1.22,3.21-.2.44-.88,1.31-.29,1.64.29.17.56-.11.75-.32.27-.32.61-.72.83-1.11.22-.43.51-.87.87-1.19.55-.49.28-.78.53-1.51.36-1.17,1.23-4.34,2.88-3.83.04.29-.29.24-.23.54.19.26,1.16-.05.5.7,0-.07-.03-.13-.1-.2.21.92-.15,2.18-.67,2.85-.42.61-.05,1.4-.61,1.91-.58.5-.18,1.38,0,1.99.19.55.04,1.17.69,1.35.59.16.89-.43,1.03-.9.43-1.57.69-3.29,1.03-4.87.38-1.65.69-3.27,1.2-4.88.25-.84.11-1.62.3-2.48.19-.85.71-.99.8-1.92.07-.9.35-1.79.52-2.69.15-.76.03-1.82.42-2.49.34-.58.84-.89.87-1.66.02-1.04.37-1.12.73-1.93.15-.33-.19-.25.11-.86.33-.64.88-1.16,1.25-1.81-.34-1.54,1.34-2.05,1.56-3.3,2.44-2.07,5.65,2,7.39,3.57,1.88,1.69,3.54,3.52,5.31,5.01.7.57,1.94.95,2.07,2.05.68.1.92.75,1.42,1.07.97.63,0,.16.25.81.92.3,1.51,1.22,2.16,1.91.25.23.37.23.31.62-.03.49.91,1.17,1.2,1.56,1.63,2.21,2.97,4.84,4.18,7.3.5,1.07.82,2.23,1.33,3.31.86.24.97-1.82,1.12-2.34.75-2.42,1.03-4.39,1.91-6.75.18-.45.4-.95.75-1.3.43-.42.31-.59.53-1.16.38-.98.86-1.88,1.32-2.87.38-.81.58-.71.35-1.52-.18-.66.15-1.16.41-1.71.27-.61.09-.7.65-.96.52-.21.36-.95.61-1.42.49-.87,1.19-.81.96-1.91.84-.51.95-1.66,1.35-2.45.2-.34.44-.68.83-.87.58-.27.55-.77.92-1.37.32-.46.65-.91.91-1.38.21-.36.34-.68.41-1.05.23-.1.44-.17.64-.21-.28-.28,1.1-2.66,1.44-3.15.17-.2.38-.32.64-.4-.1-.39-.09-.71.17-1.04.81-1.06.95.52.75,1.04,1.31,0,1.83-2.38,2.52-3.26.31-.38,2.33-3.02,2.97-1.78.16-.05-.08-.33.11-.43,1.84.97,3.25,2.22,4.28,4.14.35.62.93,1.4,1.06,1.89.14.47.35.96.52,1.43.22.76-.12,1.36-.2,2.12-.07,1.05-.09,2.7,1.2,2.49.99-.15,2.54.09,2.95-.98.31-.78,2.12-.59,2.9-.69.64-.09,1.2-.31,1.7.1.68.5,1.78.12,2.57,0,2.61-.45,4.97-.65,7.6-.57,1.38.07,2.65-.24,3.99-.46.73-.1,1.51-.18,2.29-.14.62.04,1.19.48,1.83.42,2.11-.16,3.93.06,5.98.51.66.15.75.57,1.46.71.65.13,1.29.34,1.87.65.6.28,1.18.65,1.67,1.09.88.8.76,1.05,1.92.67,1.78.81-.02,2.84.4,4.18.38,1.24,0,2.54-.14,3.83-.02.58,0,1.25.26,1.81-.7.55-1.19,1.15,0,1.32,1.26.17,2.17-.06,3.43,0,1.41.06,2.91.12,4.33-.17,1.04-.24,1.82-.07,2.59-.18,1.45-.17,2.87-.78,4.31-.97.89-.12,3.44-.05,2.27,1.35-.96,1.11-2.16,1.11-3.61,1.23-1.47.12-2.89.2-4.27.76-.6.22-1.24.5-1.91.5-.46.61-1.11.89-1.87.92-1.2.63-2.43,1.21-3.7,1.68-.88.34-3.22.64-3.64,1.5-1.22,2.54,3.64,1.31,4.83,1.18.96-.06,7.18-1.64,6.35,1.16-.35,1.12-.66,1.87-1.35,2.99-.36.63-.8,1.17-1.19,1.78-.38.62-.02,1.03-.58,1.59.49,1.4,10.4-6.5,11.58-6.78,3.01-.71,1.03,2.85-.02,3.47-.3.16-.28.76-.47,1.04-.26.35-.77.42-1.04.72-.85.9-1.4,1.96-1.87,3.09,1.87-.14,3.17-1.66,4.66-2.63,1.04-.68,2.33-.89,3.11-1.92.22-.28.67-.83.52-1.23.77-.14,1.45-.35,1.94.45.33.55.12,1.16-.11,1.71-.15.36-.37.68-.68.96-.55.47-.24.83-.43,1.41-.24.72-.8,1.18.43.83,1.02-.3,2.08-.42,2.93-1.08.62-.49,1.2-1.02,1.84-1.46.71-.49,1.46-.41,2.11-.85,3.46-2.33,2.08,3.95,2.51,5.91-.07-.07-1.07.21-1.25.17-.8-.83-1.19-1.34-1.38-2.38-.42-2.24-2.81.1-3.83.66-2.22,1.24-7.86,2.9-5.96-1.87.5-1.23-2.27,1.22-2.72,1.45-1.33.72-2.37,1.5-3.72,2.19-.86.39-3.29,1.53-3.35-.34,0-.48,1.81-3.52,1.68-3.6,0,0,.42.25.28.11-.43-.4,0-1.18.37-1.78-.1.04-.42.36-.2,0-1.98,1.32-4.13,2.38-6.13,3.59-1.07.64-2.13,1.33-3.06,2.19-.66.58-1.66,2.38-2.48,2.38-2.24-.04-1.54-3.5-1.36-4.9.28-2.38,1.16-4.95,2.79-6.76-1.54-.66-3.47.16-5.05.3-1.05.06-.67.97-.88,1.92-.08.27-.48,1.84-.77,1.27.1.12.19.18.29.22-.14.15-.3.25-.51.3.49.65-1.42,2.02-1.06,2.4.28-.09-.27-.27,0-.43.84.95-.67,3.08-1.02,4.07-.48,1.19-1.16,1.76-2.16,2.45.15,1.16-.95,1.9-1.96,2.09-1.29-1.08-2.55-3.54-.94-4.88,0-.94,1.47-6.97.95-7.22-.88-.45-1.06.42-1.96.35-.87-.02-1.78-.21-2.31-1-1.3-2.09,3.07-2.34,3.76-2.94.46-.42,1.24-.39,1.55-1.14.22-.54.97-.11.88-.68-.15-.77-.39-.41,0-1.15.25-.49.28-1.09.32-1.63.53-.42.98-.99,1.04-1.65-.19-.67-2.61-.3-3.21-.3-2.47,0-4.96-.09-7.42.06-1.25.06-2.51.18-3.76.05-.51-.06-.52-.4-1.16-.34-.55.06-1.15.24-1.61-.2-2.67.39-5.4-.1-8.06-.37-.6-.07-4.17-.11-4.15-.64-.92-.13-1.49.3-1.62,1.22-.22,1.47-1.36,3.22-1.98,4.68-.68,1.55-1.85,2.94-2.28,4.43-.26.91-2.68,6.01-2.21,6.6.55.68,1.96-1.02,2.58-1.44.41-.29,2.28-1.7,2.32-1.31.57-.35,1.34-.82,1.65-1.46-.16.06-.21.11-.11.2-.37-.01.29-.36.55-.2-.1-.17-.22.1-.35-.1.83-.67,1.37-1.62,2.09-2.33.42-.44.84-.82,1.37-1.14.63-.4.53-.74,1.09-1.06.83-.51,1.4-1.43,2.27-1.93.88-.53,1.72-.94,1.87-2,.76-.56,1.94-.3,2.28.56.25.67-.2,1.27-.29,1.92-.56,2.75-1.69,6.09-1.07,8.9,1.52-.85,1.86-2.87,3.46-3.36,1.34-.41,3.21-1.09,3.74-2.59.27-.74-.49-1.31-.09-1.96.55-.84,1.3-.7,1.96-.2.97.71.92,4,1.4,5.23.45,1.17.72,2.55,1.23,3.87.24.57,1.02,1.18.41,1.81-.99.92-1.12-.72-1.56-1.17-.43-.47-.43-1.02-.93-1.48-.75-.65-.69-1.33-1.09-2.22-.28-.56-.42-1.85-1.17-1.46-.48.22-.94,2.13-1.75,1.03.05-.08.12-.08.19,0-.14-.31-.39-.44-.72-.43.65,2.58-3.95,2.88-3.95,4.05-.34.2-.49.87-.71,1.24-.17.34-.86.44-.91.71-.3,1.27-1.89-.52-2.06-1.08-.33-1.11-.26-2.28-.32-3.42,0-.81.43-1.6.47-2.43.07-1.06-.11-2.17.15-3.23-1.16.19-1.75,1.15-2.66,1.82-1.2.88-2.26,1.9-3.26,3.07-.74.84-1.5,2.43-2.6,2.65-1.08.24-1.74,1.07-2.47,1.81-.64.69-1.55,1.18-2.31,1.69-.47.27-.97.55-1.36.98-.72.76-1.55.42-2.5.13-.27-1.66.38-3.26.62-4.89.09-.61.4-1.12.75-1.62.3-.49.55-1.78.88-2.07-1.14.73-1.68,2.02-2.57,3.05-.48.58-.3.84-.79,1.31-.48.45-.59,1.17-.73,1.78-.08.3-.54.68-.54.97-.04.72.41.98-.18,1.65-.44.46.11,1.27-.97,1.15-.49-.47-.76-1.14-1.03-1.76-.68.49-1.8,1.23-2.29,1.83-.42.49-.81,1.06-1.3,1.5-.85.06-.6-.34-1.51.07-.66.29-1.31.55-2,.86-.73.34-1.04.05-1.75.3-1.41.49-1.83-.27-3.15-.42-1.11-.14-1.32-.76-2.27-1.45-1.19-.9-1.05-2.35-1.45-3.52-.17-.57-.55-.44-.77-1.11-.14-.36-.35-.72-.71-.94-.81-.44-1.88-.19-2.74-.54.02.82.02,1.2-.97.75-.85-.4-1.84-.51-2.78-.57-.94-.08-1.53-.47-2.4-.58-1.06-.14-2.11.36-3.09.65-1.09.34-1.11-.04-1.96-.39-.4-.18-1.8-.67-2.06-.25-.44.74.23,1.04-.77,1.14-.84.14-1.4.72-2.17-.01-.5-.49-.69-1.19-1-1.8-.19-.4.13-2.43-.82-1.77-.43.3-.3.91-.38,1.37-.79.27-1.72,1.07-2.6.62-1.14,1.05-3.01,2.26-3.8.13-.49-1.26.1-2.64.1-3.94-1.02.77-2.54,1.71-3.22,3.37-.44,1.2-.03,2.32-.55,3.38-.57,1.17-.48,2.16-.7,3.39-.9,5.67-1.36,11.43-1.83,17.14-.19,2.42-.8,4.85-.85,7.26-.07,2.38-.25,5.23-.92,7.43-.34,1.05.14,2.16-.05,3.21-.26,1.22-.25,2.48-.34,3.73-.12,1.43-.3,2.78-.27,4.17.03,1.38-.39,2.46-.41,3.77-.02,1.42,0,2.59-.26,4-.17,1.04.42,2.06.24,3.23-.52,2.84-.6,5.99-.52,8.88.03,1.53.23,3.34-.16,4.82-.34,1.23-.14,2.28-.27,3.52-.39,2.76-.15,5.09-.32,7.78-.07,1.57-.23,3.12-.44,4.65-.25,1.54-.83,3.18-.7,4.73.12,1.45-.22,2.92-.51,4.33-.25,1.37-.28,3.15-.78,4.41-.44,1.05-.34,2.34-.56,3.47-.29,1.24-.57,2.31-1.2,3.42-.51.84-.22,2.06-1.1,2.69-.96,0-1.94,1.61-2.36-.52-.46-2.58.16-4.43,1.12-6.84.53.12.56,1.04.51,1.46,1.22-.34,1.19-3.77,1.31-4.67.33-2.42.8-4.8.97-7.25.2-2.61.75-5.19,1.06-7.81.3-2.38.02-4.82.16-7.23.07-1.23.15-2.42.22-3.65,0-.56.43-1.34.01-1.74-.58-.62.12-2.33.29-3.08.25-1.24.29-2.46.18-3.74-.08-1.19-.08-2.15.26-3.32.25-.89-.31-1.73-.14-2.69.22-1.14.38-2.09.26-3.24-.12-1.37.37-2.51.31-3.8-.21-4.92.31-10.17.85-15.1.52-5.05.69-10.22,1.62-15.18.91-4.85.82-10.02,1.49-14.92.29-2.19.68-4.4,1-6.62.2-1.11-.14-1.79-1.47-1.45-.34-.27-2.09-2.65-2.2-2.53-.13.13-.13.25.03.34-.48.12-.77.4-1.08.75-.44.53-1.46.89-1.32,1.74-3.36,1.81-2.52-3.2-1.66-4.82,0,0,.82-1.42.05-.95-.68.43-1.08,1.39-1.68,2.06-.76.81-1.63,1.61-1.98,2.67-1.06.35-.86,1.73-1.87,2.03-1.62.45-1.06,3.14-3.09,2.53-.72-.22-.67-.34-.48-1.15.11-.51.34-1.01.53-1.48.51-1.36.79-2.62,1.39-3.96.6-1.31,1.13-2.69,1.38-4.13.14-1.01.12-2.27.62-3.16.66-1.1.86-2.39,1.03-3.67.1-.82.94-1.93.5-2.74-2.09.74-4.45,2.46-6.04,3.55-.46.32-2.22,1.36-2.27,1.5-.19.7-.41.67-1.26,1.14-.36.19-.51.46-.36.85-.61.14-.94.78-1.58.81-.59,1.26-1.6,2.12-2.44,3.16-1.35,1.69-1.76,3.67-3.14,5.15-.23.23-.31.44-.07.71-.64.55-1.03,1.35-1.68,1.86.49.27-1.11,2.07-1.27,2.41-.41.84-.75,1.51-1.36,2.22-.57.62-.47.94-.88,1.63-.25.42-1.07.83-1.05,1.35.04.59-1.11,2.16-1.55,2.69-.91,1.08-1.74,2.22-2.13,3.57-.16.68-.32,1.08-1.04,1.33-1.11.41-1.26-.08-1.09-.95.13-.62.24-1.35.52-1.95.1-.16.62-.39.66-.39.18-.41-.24-1.37.71-1.13.2-1.13.83-2.2,1.37-3.21.98-1.84,1.7-3.5,2.6-5.27.19-.41.25-1.88,1.11-1.88.11-.54-.42-.67.3-.99-.06.04,1.21-.53.52-.77.9-2.05,2.73-3.36,4.02-5.05.45-.56,1.69-1.71,1.55-2.38,1.38-.77,1.29-2.04,1.93-3.22.7-1.34,1.27-2.7,1.96-4,.69-1.37,1.09-2.51,1.63-3.93.48-1.26.24-2.34.37-3.65.11-.72.44-.86.46-1.68.02-.88.09-1.79.07-2.67-.02-.97.08-2.36-1.28-2.24-.74.06-1.95.86-2.62.21-.14-.31,1.75-1.2,1.96-1.47-1.4.1-2.43,1.21-3.42,2.08.32-.04.62-.04.94,0-.77.74-1.54.81-2.18,1.35-.82.12-1.98,1.27-2.38,1.9-1.76,2.45-3.64,4.58-5.37,7.1-.08-.06-.08-.14,0-.21-.59,1.2-1.37,2.27-2.09,3.39-.5.77-.89,2.5-1.85,2.73,0,1-.88,1.93-1.13,3.09-.85.62-.57,1.87-1.75,2.2.11.26.32.04.53.28-.19.49-1.21.87-.99,1.28.22.36-.85,1.37-1.05,1.82-.59,1.59-1.53,3.32-1.93,4.97-.34,1.4-1.29,2.51-1.7,3.9-.33,1.07-1.93,2.96-1.67,4.07.1.51-.56,1.62-.78,2.2-.42,1.17-.81,2.36-1.37,3.51-.55,1.18-.43,2.79-1.3,4.04-.27.35-.33.53-.51,1.18-.21.84-1.01,1.31-1.23,2.1-.14.56.14.99-.1,1.65-.35.84-1.02,1.51-1.12,2.43-.2,1.6-1.19,3.43-1.69,5.01-.62,1.86-1.06,3.91-1.98,5.6-.33.62-.44,1.38-.78,1.95-.27.47-.84.92-.9,1.34-.13.81-.14,1.95-.94,2.41-.66.44-.56,1.33-.97,1.96-.63.98-.91,2.49-1.71,3.34-1.22,1.28-1.74-.47-1.48-1.44.22-.79,1.05-1.82,1.01-2.62,0-.34.6-1.01.67-1.55.01-.33.13-.65.28-.93.62-.85.48-.19.3-.14.97-.44.92-2.33,1.12-3.19.1-.53.73-2.59,1.04-2.82.83-.57.3-2.08.52-2.87,1.57-.46.41-2.62,2.08-2.79-.39-.95.32-.84.33-1.82,0-.49.56-1.02.39-1.51,1.11,0,.07-1.34,1.23-1.64-.01-.15-.45-.2,0-.23-.01-.06-.54-.28-.29-.4.34-.15.67-.53.78-.91.26-.76-.56-.16.1-.98.42-.54.56-1.23.79-1.83.4-1.09.91-1.87,1.25-2.98.33-.97.75-1.92,1.1-2.94.51-1.68,1.63-3.15,2.02-5.01.24-1.12.83-2.07,1.23-3.17.42-1.19.92-2.49,1.25-3.75.63-2.16,1.46-4.04,2.47-6.14.23-.43,1.15-2.77,1.02-2.9.19-.48.72-.65.82-1.13.11-.5-.33-.39.24-.95.32-.3.43-.62.17-1.03.66-.29.98-.91,1.15-1.5.38-1.23.79-2.19,1.36-3.26.4-.9,1.45-2.38,1.33-3.3.32-.26.29-.73.82-.73-.09-.56.11-1.04.74-1.12-.09-.08-.2-.08-.32,0,.16-.75,1.77-3.31,2.18-3.31-.22-.58.48-1.28.67-1.81.17-.49.17-1,.05-1.51.29-.2,1.11.2.74-.5-.23-.43.86-1.74.91-2.48.27-.71.61.26.58-.83,0-.61.25-.9.77-1.14-.3-.7.75-.9.62-1.27-.1-.33,0-.7.14-.97.29-.65.66-.69.82-1.25.14-.59.52-.22.95-.31.13-.05.08-.55.21-.8.42-.62.89-2.06,1.03-2.69.16-.8.33-1.57.82-2.22.73-1.04,1.11-2.23,1.81-3.41.29-.49.64-.96,1.1-1.32.52-.44.44-.71.86-1.19.59-.67.91-1.2,1.36-1.98.4-.72.83-1.35,1.27-2.09.23-.3.5-.61.91-.56.06-.8.47-1.51,1.02-2.08.42-.47.93-.85,1.46-1.22-.09-.65.13-1.19.57-1.68.27-.31.59-.59.87-.97.36-.48.72-.12.95-.48-.05-.06-.08-.06-.11,0-.2-.21.32-.26.42-.3-.02-.25-.45-.07-.42.11-.15-.47-.19-1.08.16-1.5.26-.24.53-.41.87-.45.04-.29-.15-.77,0-1.04.24-1.28,2.21-.76,1.86-1.85,0,.18-.1.28-.23.28-.21-.73.94-2.08,1.38-2.08-.15-.5.29-.59.51-.98.13-.43-.73-.28-.42-.63.08.05.08.13,0,.19,1.67-1.16,1.82-3.34,2.69-4.96-.58-.35-1.62-.26-1.84.53-1.4.32-2.74.84-4.04,1.43-2.33,1.1-4.53,2.46-6.97,3.24-.48-.03-.8.17-.95.55-.35.7-.6.45-1.27.8-1.05.57-2.04,1.4-3.09,2.02-1.21.76-2.33,1.6-3.43,2.48-.98.82-2.16,1.27-3.14,2.13-3.32,2.91-6.19,5.6-9.36,8.57-.43.39-.76.76-1.2,1.23-.49.49-1.05.74-1.11,1.64-.78.53-1.84,1.2-1.88,2.31-.58-.32-.79.9-.82,1.1-1.1.13-.89,1.01-1.54,1.54-.67.5-1.04,1.25-1.5,1.95-.33.58-2.64,2.94-2.52,3.14.25.35-1.07,1.64-1.38,1.98-.47.49-.91.49-.72,1.16.14.67-.38.84-.92.91-.05.2,0,.31.15.42,0,0-.81,1.1-.84,1.17-.64.94-1.48,2.13-1.96,2.88-.35.57-1.46,1.99-1.76,3.06-.26.84-2.17,2.46-1.89,3.76-.26.29-1.01,1.18-.99,1.42.06.62-.52.28-.78.63-.04.48-.13.86-.35,1.26-.32.58-.34,1.75-.67,2.11-.55.5-.29-.3-.55.69-.19.58-.14.79-.83.79.05.22.15.41.31.53-.37.3-.51.75-.68,1.14-.14.41-.31.88-.67,1.16-.61.44-.19.26-.35.96-.2.78-.95,1.31-1.22,2.06-.29.69-.32,1.3-.71,1.82-.06-.06-.06-.14,0-.2-.6.85-1.2,2.47-1.35,3.49-.1.56-.27,1.24-.75,1.64-.61.54-.72,1.25-1.03,2.06-.41.99-1.42,4.67-2.31,4.9-.35.08-1.14,2.8-1.32,3.33-.21.59-.59,1.24-.37,1.86-.66.25-.73.27-.78.92-.1,1.05-1.66,2.28-1.2,3.34-1.18.95-1.12,2.62-1.98,3.8-.48.65-.14.98-.48,1.73-.37.82-.89,1.5-.93,2.42-.32-.26-1.1,1.5-1.12,1.92-.02.36-1.31,2.57-.94,2.76-.55.48-.66,1.25-.87,1.91-.26.71-.88,1.18-.88,1.92.02.53-.57.86-.8,1.35-.34.75-.56,1.54-1.05,2.15-.87,1.09-1.26,2.47-1.71,3.76-.43,1.13-1.18,1.97-1.5,3.09-.16.44-.59.06-.43.61.15.38-.05.64-.18,1-.32.86-1.61,1.55-1.29,2.48,1.07-.8,2.38-1.39,3.22-2.48.04.08.04.16,0,.21,1.71-.91,3.28-2.67,4.75-3.99,1.5-1.34,3.08-2.54,4.55-3.76.78-.57,1.64-1.07,2.07-1.96.41.14.64-.17.96-.39.19-.14.25-.34.18-.56.29,0,.7.02.84-.33.27-.83,1.28-1.11,2.01-1.85.72-.73,1.15-1.76,2.06-2.14.48-.13,1.52-.89,1.63-1.22.62-1.61,2.21-2.42,3.49-3.68.71-.66,1.55-1.27,2.24-2.02.12-.39.38-.56.75-.45.53,0,.17-.32.5-.61.71-.58,2.02-2.62,3.12-2.07-.6-.44,1.15-1.86,1.25-2.39.08.25.64-.09.52.33.4-.42.08-.33.12-.72.06-.53.52-.52.83-.83.69-.64,1.05-1.54,2.15-1.05-.18,1-.96.84-1.32,1.68-.22.55-1.05.58-.95,1.31-.3.3-.77,0-1.05.4-.26.45.17.61-.46.89-.86.36-.43.57-1.17,1.22-.13.12-1.62,1.03-1.43,1.24.16.16-.89,1.32-1.19,1.56-.51.41-1.53.75-1.95,1.23-.32.36-.16.9-.7,1.1-.55.21-.68.47-1.11.86-.83.69-1.48,1.62-2.23,2.4-.67.75-1.75,1.25-2.27,2.07-.61,1.02-1.91,1.82-2.91,2.63-1.2.96-1.65,1.75-2.9,2.79-2.12,1.64-3.9,3.41-6.05,4.85-.95.62-1.65,1.58-2.62,2.19-.67.37-.39.12-.58.59-.18.37-.99.69-1.38,1.11-.32.4-.22.78-.72,1.04-.4.21-.78.33-1.13.55-.4.22-.72.57-.82.99-.58-.01-.94.35-1.14.84-1.12,0-.54.01-1.05.71-.15-.3-.64.22-.71.3-.51.5-2.06,1.53-2.29.11-.11-.82.89-1.64,1.2-2.37.33-.75.48-1.28.91-1.94.44-.67.82-1.53,1.2-2.2.22-.4.23-.88.37-1.27.21-.75.69-.81.93-1.53.64-2.05,1.78-3.83,2.47-5.74.35-1.08.97-2.19,1.38-3.35.48-1.27,1.47-1.99,1.85-3.38.51-2.05,1.64-3.75,2.33-5.73.42-1.17.98-2.27,1.58-3.37.52-1.03.61-2.2,1.18-3.11.26-.48.51-1.07.78-1.83.15-.41.29-.9.55-1.29.15-.28.38-.48.67-.63-.13-.31-.13-.61-.02-.88.14-.4.41-.71.6-1.01.42-.61.05-1.1.59-1.58.38-.29.73-.27.34-.73-.17-.27-.07-.46.34-.52.45-.11.6-.39.4-.82.05-.4.87-1.12.35-1.4.45-.84.87-1.71,1.25-2.55.63-1.33.96-2.44,1.69-3.7.3-.55.16-.71.54-1.01.55-.46.41-.7.56-1.4.18-.52.38-1.12.76-1.53.49-.63.03-.75.54-1.44.26-.36.26-.86.32-1.28.86.03.75-.68,1.02-1.29.42-1.02.73-1.88,1.14-2.86.34-.73,1.15-2.67,1.7-2.93.02,0,.89-2,1.08-2.28.25-.47.4-.91.34-1.41.66-.02.79-.47.8-1.05,0-.64.38-.43.72-.84.54-.63-.06-1.03.64-1.4.43-.2.52-.75.43-1.14.7-.05.5-.75.61-1.23.19-.69.58-.02.82-.79.18-.52.26-.76.72-1.09-.13-.71.8-1.11.95-2,.14-.86.26-2.81,1.75-1.92-.51-.7.24-1.12.7-1.55.38-.36.49-.85.43-1.37.69-.4.58.13.9-.81.19-.58.19-.95.67-1.22.36-.2.33-.25.4-.75,1.17,0,.4-2.04,1.77-1.68.32-.46.77-1.58.87-2.08.22-.86,1.17-1.12,1.56-1.91.09-.17.36-.89.78-.47.05-.27.11-.57.24-.86.1-.26.31-.64.66-.64.62-.06.44-.41.78-.97.56-.94,1.41-1.63,2.07-2.48.42-.55.8-1.29,1.45-1.63.56-.31,1.22-1.13,1.73-1.73.21-.26.47-.51.82-.27.18-.57.51-1.09.9-1.54.83-.96,1.86-1.67,2.72-2.59.8.14,2-1.62,2.53-2.09,2.1-1.88,4.44-3.43,6.89-4.74"/>
        <path class="cls-2" d="M326.95,79.7c-.54.05-.71-.88-1.25-.54.18.84.45,1.68.58,2.54.03.43.29,1.8-.05,2.14.76.14-.27,2.38.83,2.78.86-1.25-.23-2.82.43-4.14,0,0-.57-1.93-.73-2.07.73-.15.21-.33.16-.34-.27-.18.03-.37.03-.37M307.4,75.14c.02-.25.37-.19.3-.52-.26-.03-.6.39-.3.52M305.65,73.1c.5-.09.64.22,1.02.39.38-.77,1.21-2.23.65-3.07-1.12.32-1.71,1.58-1.67,2.69M324.45,69.77c.43.02.72-.47.32-.53-.14.16-.24.31-.32.53M303.06,68.22c.28.78-.7,1.58-1.05,2.15-.46.77-.38,1.78-.19,2.61.75-.33.98-1.25,1.31-1.91.6-1.31,1.23-1.57.56-3.2-.21.16-.41.26-.62.34M272.45,69.46c-.56.41-1.05.85-1.74.95-.78-.68-1.8-.9-2.66-1.45-1.4-.82-3.55-.82-5.22-1.12-1.4-.3-2.28,1.79-2.99,2.84-.41.62-.57,1.34-1,1.79-.39.35-.97.94-.97,1.55-1.02.96-2.02,2.39-2.79,3.71-.34.61-.47,1.21-1.05,1.6-.63.44-.49.68-.88,1.46-.35.69-.79.29-1.01,1.03-.25.91-.98,1.54-1.4,2.34-.03.05-.84,2.05-1.24,1.66.16-.21.42-.03.42.2-.23.71-1.02.42-.93,1.11.14,1.32-1.1,2.78-1.39,4.05,1.95-.81,3.48-2.01,5.3-2.93,1.98-1,4-1.94,5.89-3.07,1.35-.83,3.32-1.33,4.85-1.83.73-.25,1.77-.16,2.22-.84.44-.67.55-1.53,1.42-1.88-.6-.33.1-.67.29-.88.67-.59.52-.85.87-1.65.2-.38.46-.82.89-.97.46-.76.7-1.6.97-2.39.33-.9,1-2.19,1.64-2.88.38-.42,1.05-.81,1.16-1.42.11-.46-.11-.98-.6-.77-.1.02.04-.16-.06-.2M287.95,70.52c2.12-.99,4.18-2.19,5.8-3.86-.94-.36-1.87.04-2.8.12-1.07.11-2.4-.34-3.42.14-1.47.67-1.77,2.91-2.47,4.19.84.25,3.08-1.8,2.89-.59M300.06,66.13c-.81-.21-1.85.43-2.68.54-1.21.15-2.26,1.22-3.35,1.92-1.99,1.25-4.2,2.31-5.97,3.88,1.62.19,3.28.34,4.91.42,1.51.1,3.74.52,5.17-.13.53-.25,2.08-1.68,1.72-2.12-.52-.58.81-3.33,1.21-3.86-.53.06-.57-.5-1.02-.65M323.42,66.66c.31.65.16.97.99.48.59-.37,1.2-.87,1.51-1.5.56-1.15-1.64-.69-2.29-.69-1.69,0-.59.84-.2,1.71M318.47,64.91c-.88-.05-1.78.34-2.65.26-.28,0-.52-.13-.66-.36-.43.34-.71.5-1.24,0-.75.96-4.42-.72-3.49,2.08.37,1.04,1.48.29,2.12.71.6-.18,1.56-.44,1.96.25-.12.3-2.35.42-2.86.39.65,1.46,2.09,2.56,3.65,2.81.44.05,3.51-.32,3.46-.44-.13.05-.18.12-.1.2,1.18-.79,3.62-1.29,3.78-2.64.12-1.11-.6-1.92-1.03-2.84-.33-.68-2.11-.37-2.95-.41M257.76,62.63c-1.52,0-3.25,2.33-4.04,3.48-.28.42-2.03,2.97-1.75,3.25.68.29,2.16-1.27,2.59-1.64.99-.87,1.75-2.92,3.32-2.41.34-.9-.21-1.74-.11-2.69M320.43,60.15c.33.79.79,1.51,1.19,2.25.66,1.37.48.91,1.88,1.02.98.07,2.03.25,3.02-.05.84-.21,1.2-1.66,1.45-2.48-2.52-.07-5.03-.61-7.54-.75M309.25,60.99c-1.59,1.16-4.05.25-4.33,2.89.71.21,2.72.54,3.21,0,.54-.55,1.32-1.78,2.16-.98.39.33.6.83,1.06,1.07.73-.09,1.47-.14,2.21-.2,1.55-.08,3.08,0,4.62-.08.79-.01,1.56-.06,2.35-.12.07-.61-.2-1.21-.47-1.71-.33-.6-.7-1.17-.87-1.82-.69-.14-1.41-.2-2.11-.2-2.63.03-5.16,1.1-7.81,1.14M334.61,59.74c-.84,0-.97.77-.21.55.52-.11,1.13.56,1.98.27-.36-.57-2.09-.32-1.77-.82M326.75,59.32c0,.72,1.28.56,1.53.1-.53-.35-.91-.02-1.53-.1M282.99,62.02c.06.41-3.51,3.9-4.05,4.64,1.08,0,2.07-.27,3.08-.49.6-.13,1.22-.2,1.84-.21,1.11-.05,1.27-1.26,1.76-2.19,1.48-2.88,3.07-5.67,4.72-8.49-1.8.97-3.17,2.47-4.6,3.89-.61.61-1.19,1.22-1.86,1.75-.11.09-.89,1.07-.89,1.07M306.77,60.15c1.43-.27,2.79-.75,4.25-.91-.18,0,.64-.06.63-.42-.34-.42-.88-.02-1.26,0-1-.39-2.04-.47-3.08-.61-1.53-.25-2.99-.7-4.46-1.01-1.11-.25-2.37-.59-3.48-.91-.55-.19-1.06-.51-1.55-.81-.85-.53-1.28-.28-2.1-.53-.48-.21-.87-.53-1.27-.75-.84-.53-.52.21-.97.67-.69.65-.98,1.88-1.58,2.81-.73,1.16-1.85,2.36-2.14,3.73-.27,1.33-1.6,2.8-2.08,4.24,3.92-.65,7.69-.17,11.45-1.69.4,0,.51-.16.34-.45-.21-.53.56-.52.87-.69.66-.42,1.22-1.09,2.02-1.2.85-.15,1.46-.76,2.36-.96.33-.06.66-.12,1.03-.14.84-.05.46-.08,1.04-.36M301.42,55.71c2.28.93,4.91.71,7.32,1.23,2.38.51,5.06,1.64,7.56,1.04.85.69,1.85.12.99-.87-.96-1.03-2-2-2.95-3.06-.98-.34-1.82-.99-2.67-1.53-.94-.64-2.38-.69-3.1-1.39-.63-.65-1.95-.56-2.83-.81-1.27-.39-2.58-.98-3.96-.98-1.62.03-3.12-.32-4.93.06-.13.96-1.01,1.65-1.54,2.38-.65.9.83,1.72,1.6,2.05.39.14.74.27,1.14.34,1.81.34,0-.04.68.49.6.15,1.14.53,1.63.87.64.42.46,0,1.07.18M337.19,51.59c-.29-1.24.86-1.79,1.23-2.82-1.09-.5-1.53,1.9-2.38,1.35-1.02-.66-2.25,2.57-2.15,2.58.69-.34.94-1.85,1.84-1.96-.52.12.05.12.07.16-.02-.3.49-.58.58-.24-.08.2-.77.5-.13.18-.16.82-1.59,2.54-2.16,3.04-1.13,1.05-1.67,2.89-2.69,4.21.74.36.87.29,1.25,0,.48-.43,1.5-1.57,1.89-2.42.07-.26.22-.49.42-.66.65-.41.4-.51.67-1.27.3-.85.92-1.53,1.55-2.16M287.35,39.46c.66-1.4,1.03-3.04,2.03-4.29.41-.52.37-.83.57-1.44.24-.75.8-.75.96-1.47.29-1.38,1.6-2.42,1.49-3.86.66.03,1.38-2.96,1.26-3.52-.23.44-.71.56-1.14.54,0,.78-.5.85-1.05,1.37-1,.89-1.88,1.96-2.88,2.86,0,.61-1.11,1.9-1.83,2.1-.74.21-1.95,2.64-2.42,3.37-.48.79-1.4.7-1.9,1.65-.45.89-1.08,1.92-1.69,2.4-1.25,1.05-2.32,2.7-2.95,4.09-.34.75-.96,1.3-1.31,1.89-.3.56-1.94,1.84-1.74,2.48-.52.13-1.16,1.16-1.39,1.69-.33.79-.93,1.59-1.57,2.45-2.01,2.61-3.61,5.48-5.29,8.27-.8,1.25-1.62,2.52-2.53,3.73.07,1.09-1.15,1.37-1.23,2.35,1-.08,1.9.19,2.88.41.58.13,1.57.43,2.02.77.86.67,1.81,1.14,2.64,1.84.89-.93,2.24-1.27,3.44-1.56,1.52-.41,2.07-3.35,2.88-4.69.27-.39.05-.63.19-.99.2-.44.63-.75.83-1.23.08-.21.41-2.03.63-1.56.31-.56.54-1.37.78-1.96.33-.9,1.03-1.62,1.59-2.38-.12-.68.51-1.01.74-1.58.38-.98,1.12-2.07,1.3-3.03.18-.98.96-1.74,1.28-2.71.36-1.15.7-2.34,1.13-3.38.38-.9.93-1.66,1.01-2.65.71-.54.39-1.45,1.27-1.96M293.94,24.16c-.02.17-.09.37-.19.53.54.66.74-.17.94-.53-.25-.06-.51-.06-.74,0M257.02,67.49c.06.36,1.26-1.19.95-1.44-.31-.22-1.67,1.17-1.82,1.44-.46.84-1.33.99-1.76,1.76-.42.72-4.34,3.43-4.29,1.46.06-.9-.51.07-.11-1.2.18-.62.38-1.26.62-1.89.46-1.16,1.04-2.32,1.9-3.26.85-.89,1.21-1.74,2.34-2.41.58-.3,1.15-.66,1.58-1.19.06,0,1.11,0,.82.43,1.26-.36,1.19-1.66,1.54-2.76.41-1.23,1.29-2.21,1.66-3.4.2-.7,1.16-2.09,1.9-2.01.76.13,1.18.75,1.25,1.46.14,1.99-1.63,2.68-1.96,4.38-.08.43-.39,1.3-.88,1.3.05,1.23-.73,1.65-1.11,2.72-.38.96-.88,2.08-.67,3.12.23,1.24,2.33-.64,2.63-1.14.64-1.02,1.08-2.21,1.94-3.03.05-.53.27-1.02.63-1.41.62-.72.82-.88,1.21-1.79.23-.56.56-1.08,1.07-1.46-.06-.51.28-1.08.64-1.44.77-.81,1.01-2,1.91-2.78.73-.66,1.54-2.01,2.1-2.94.29-.44.49-1,.78-1.52.38-.69,1.03-.84,1.42-1.55.67-1.26,1.39-2.49,2.16-3.63.72-.98,1.91-1.92,2.32-2.98.38-1.09,1.65-1.36,2.04-2.4.24-.66,1.12-2.07,1.56-2.18.83-.27,1.84-2.28,2.48-3,.78-.88,2.06-1.85,2.54-2.93.4-.88,1.3-1.77,2.06-2.55,1.24-1.25,2.51-2.45,3.77-3.7,1.88-1.95,4.13-3.6,5.83-5.69.69-.84,1.09-2.55,2.06-3.08,1.25-.7,2.23.86,1.49,1.81-1.56,2-2.55,4.54-3.97,6.61-.59.86-.77,2.27-1.6,2.91.03.56-.5,2.41-1.13,2.4-.09.26.27.2.2.5-.4.7-.76,1.42-1.14,2.15-.72,1.45-1.44,2.86-2.14,4.32-1.49,3.11-2.94,6.25-4.55,9.3-.41.77-.56,2-1.07,2.45-.31.27-.39.68-.36,1.09.05.63-.47.91-.74,1.5-.39.75-.19,1.13-.66,1.85-.4.57-.68,1.22-.95,1.83-.38.81-1.45,2.55-1.51,3.04-.15,1.07-1.11,2.31-1.82,3.08-.36.42-.92.81-.36,1.47-.63.94-1.19,1.88-1.45,2.98,1.13-.41,1.37-1.6,2.29-2.13.84-.49,1.18-1.52,1.86-2.2,1.38-1.36,2.78-2.65,4.29-4.13,1.04-1,2.19-1.95,3.34-2.9.56-.47,1.11-.95,1.65-1.46,0-.75-.12-1.05.45-1.65.87-.87,2.06-1.41,3.29-1.48,1.09-.02,2.07-.62,3.31-.36,1.16.22,4.51.2,5.99,1.23,1.23-.05,2.25.03,3.11,1,1.48-.14,2.44.68,3.69,1.31.47.22.95.36,1.48.36-.46.63,1.03.83,1.15.83,1.12,1.33,2.6,2.05,3.6,3.37.34.44.74.86,1.03,1.33.68,1.09.47.92,1.84.9.85-.08,1.71-.08,2.56-.26.7-.13,1.42.48,1.75.02.34-.47.68.02,1.02.14.26.1.92-.34,1.41-.29.93.13,1.97.29,1.97-.98,1.74-3.07,3.68-6.07,6.11-8.62.85-.88,5.06-5.56,6.33-2.78-.46,1.62-1.25,3.08-2.04,4.52-.45.84-.91,1.68-1.31,2.57-.15.44-.36.85-.47,1.31-.33.05-.54.22-.66.5-.04-.04-.04-.13,0-.2-.97,1.57-1.42,3.01-2.77,4.35.75.5,1.77.68,2.63.99.35.09,2.85,1.11,1.6,1.36.74.73-2.37.59-2.88.59-1.25.02-3.48-.64-4.21.67-.19.39-.74.61-.9,1.03-.19.63,1.57.57,1.94.57,1.43,0,3.12-.41,4.52.01.95.31,1.25-.06,2.03-.16,1.44.21,3.55.31,4.85.16,1.84-.16,4.14-.05,6.02.3,1.48.27,2.51.18,3.75.45-.38.33.17,1.03.42.62.26.21-.25.35.29.21-.19.9-6.37-.28-7.3-.33-2.87-.12-5.65-.4-8.52-.2.38,1.1.41,2.53.19,3.52-.13.57-.35,1.18-.96.68-.73-.6-.58-.6-1-1.4-.64.04-1.23.81-1.23-.47,0-.55-.54-.42-.18-.97.3-.5.87-.62.8-1.36-2.38.11-4.79,0-7.13.32-1.54,1.52-1.58,4.07-2.29,5.96-.75,1.92-.28,3.4-.73,5.31.65.37,1.86,3.25,1.17,3.8.13,0,.18-.08.08-.17.03-.06.68.78,0,.92,1.21.64.5,2.08,1.04,2.87,1.03,1.56-.54,3.9.11,5.52.49,1.24-2.42,1.02-2.88-.25-.29-.73-.9-1.04-.74-1.94.03.24-.6-1.12-.11-.61-.46-.77-.1-3.37-1.02-3.74.01-1.78-.43-3.39-.45-5.2,0-1.97,1.14-4.59.18-6.45-.6-1.13-1.1.18-1.94.39.03-.09-1.24.62-1.49.66-.64.17-1.42.24-1.69,1.02-1.36.29-2.77.12-4.07-.3-1.05-.35-2.06-.89-2.95-1.54-.91-.66-1.63-.98-1.86.53-.1.67.03,1.41.29,2-.42.63-.89,1.42-1.14,2.11-.23.62-.02,1.34-.61,1.94-.24.25-1.7.7-1.25,0-.27.06-.55.09-.84.12-.34-.47-.62-.99-.93-1.53-.35-.61-.95-2.2-1.79-1.88-.63.24-1.51.72-1.77,1.27-.35.81-1.13,1.56-2.05,1.69-2.1.3-1.18-2.44-1.98-3.38-.49-.58-4.44,0-5.16-.04-3.19-.2-7.3-1.46-9.37,1.58-.31.45-.64,1.05-1.19,1.28-.8.38-2.03-.34-1.8-1.31.14-.68.97-1.19.91-1.93-.32-.66-1.48.06-1.66-.83.58-.28,1.16.06,1.74-.28.51-.34.86-.87,1.14-1.38.62-1.16.85-2.52,1.59-3.62-.96-.02-2.26-.08-3.14.39-.86.42-1.95-.05-2.69.57-1.82-.5-2.53,2.82-3.45,3.84-.25.27-.5.53-.79.81.31.5.03,1.08-.33,1.44-.35.3-1.21,1.37-1.36,1.92-.21,1.06-1.12,2.17-1.73,3.13-.19.32-1.38,1.54-1.33,1.88,1.52-.06,3.06-.62,4.5-1.03,1.69-.46,3.9-.53,5.33-1.55.74-.51,1.38.03,2.15-.11.88-.18,1.7-.7,2.6-.82.98-.13.42.68,1.23.39.83-.27,1.58-.65,2.5-.29.16,1.4-6.89,2.18-7.97,2.3-1.12.13-2.81.41-3.87.82-.77.28-1.63.22-2.45.48-.4.13-.64.52-1.23.59-.88.08-1.45.34-2.22.75-.61.35-.9-.04-1.44.41-.58.45-.88,1.23-1.07,1.93-.16.7-.59,1.19-.95,1.84-.91,1.55-1.4,1.95-3.01,1.33.6-1.17-.12-2.38,1.16-3.21-.7-.02.42-.09-.15-.39-.51-.28-1.13-.13-1.59.08-.47.19-2.47,1.47-2.52,1.13-1.42,1.02-3.35,1.4-4.75,2.38-1.37.96-2.4,1.35-3.9,2.32-.77.5-1.47,1.04-2.33,1.41-.84.3-1.46,1.05-2.33,1.27-2.31.52-.78-4.56-.15-4.3.03-.27-.06-.49-.29-.61.75-.5.98-1.46,1.31-2.23.29-.76,1.17-1.44,1.3-1.99.2-.92.45-.95,1.02-1.74.59-.9.87-2.03,1.69-2.75.32-.27.91-.2.67-.71-.32-.67.26-.36.52-.88.2-.35.24-.81.4-1.23.76-.08.97-.95,1.3-1.51.64-1.15,1.4-2.24,2.29-3.27.53-.56,1.72-1.88,1.58-2.84-.05.27-1.24-.2-1.28-.26-.93-.3-.37-1.17-.06-1.81"/>
        <path class="cls-2" d="M233.56,61.7c.44-.15-.14-.35-.11-.61.39-.5.99-.83,1.6-.63.41.13.7.43.8.83.26.82-.11.64-.43.92,1.02.52.69,1.97-.29,1.57-.53-.25-1.03-.71-1.36-1.19-.07-.12-.4-1.19-.29-1.17.19.07.21.15.08.28"/>
        <path class="cls-2" d="M244.63,67.81c1.29-.5,2.1-3.11.07-3.16-.68,0-1.42.2-2.03.54-.25.13-.07,2.74-.02,3.25.72-.15,1.18-.82,1.98-.63M247.01,68.22c-.85.32-.88.9-1.6,1.23-.32.12-.58.33-.78.62-.56.05-1.14.05-1.68.2-.9.22-1.36.46-2.1-.38-.56-.64-.45-1.44.35-1.75-.13-.51-.94-.21-.91-.85-.52.3-.96.72-1.46,1.05-.47-1.01-.2-2.02.44-2.83.31-.34,1.69-1.81,1.73-1.42.56-.54,1.72-.61,1.98-.61,1.02.53,2.23-.3,3.3-.24.5.66,1.17,1.21,1.49,1.99.59,1.5-.73,1.76-.75,3"/>
        <path class="cls-2" d="M316.91,67.7c-.08.34-.96.14-.96.34-.36-.16.41-1.02.96-.34"/>
        <path class="cls-2" d="M335.45,68.54c.33-.26,0,.19-.13.19.45.67.82.72.02,1.23-.73.39-.45.44-.76,1.18-.35.94-1.31,2.29-.6,3.3.74-.81,1.11-1.87,1.73-2.75.37-.48.93-.57.54-1.13-.18-.33-.3-.75.15-.88.65-.17,1.46-.17,2.09.05.2.08.47.24.47.46-.04.71-.18.48.15,1.32.92,2.23,6.11.89,7.91.48,1.24-.26,2.2-.33,3.06-1.19.8-.74,1.66.67,1.88,1.44.34,1.38-1.05,1.62-2.14,1.69-1.27.09-2.09.35-3.3.4-1.11.04-1.8.67-2.88.69-1.57,0-3.1-.61-4.6-.99-.52-.14-1.76-.92-2.22-.75-.98.43-1.33,1.56-2.02,2.32-.54.56-.95,2.14-1.5,2.38-1.1.41-2.27.25-2.21-1.26.1-.11.18-.06.2.09.12,0-.03-.54,0-.61-.22.13-.12-1.93,0-2.28.3-.79.85-1.26,1.1-2.13.18-.75.36-.96,1.09-.99-.98-1.43,1.46-1.49,1.98-2.25"/>
        <path class="cls-2" d="M310.92,73.61c.25.41,2.68-.35,3.32.16-.14-.03-.14-.08-.05-.16.11.08.16.16.15.3.42-.1.87-.1,1.33-.04.49.04,1.81.04,1.97.04.96-.23,1.98.08,2.88.41,0,.16-.07.3-.2.41-.06-.29-5.64-.22-6.21-.21-.05-.06-.05-.12,0-.2-.56-.08-1.43.81-1.85,0,.15.19-1.46.3-1.98,0,.05-.15.36-.5.63-.71"/>
        <path class="cls-2" d="M320.73,74.11c.1,0,0,.25.1.17.67-.36-.84-.43.73-.33.61.06,1.22.06,1.74.36-.04.48-2.4.4-2.57-.21"/>
      </g>
      <path class="cls-1" d="M142.48,140.03l-.86-2.5-.97,2.5-1.89,4.79h5.43l-1.7-4.79ZM146.69,152.09l-2.05-5.84h-6.45l-2.31,5.84h-1.79l6.19-15.55h2.84l5.44,15.55h-1.89Z"/>
      <polygon class="cls-1" points="161.01 152.09 153.09 137.94 153.27 139.76 153.27 152.09 151.47 152.09 151.47 136.54 154.23 136.54 162.35 151.12 162.1 148.79 162.1 136.54 163.92 136.54 163.92 152.09 161.01 152.09"/>
      <path class="cls-1" d="M317.19,129.03c-2.98,0-6.2-1.07-6.2-5.57v-10.28h1.81v10.12c0,3.45,2.2,4.2,4.4,4.2,2.38,0,4.39-.98,4.39-4.74v-9.58h1.66v9.68c0,4.96-3.33,6.16-6.05,6.16"/>
      <polygon class="cls-1" points="327.01 128.75 327.01 113.18 335.94 113.18 335.94 114.59 328.75 114.59 328.75 120.2 335.48 120.2 335.48 121.64 328.75 121.64 328.75 127.28 336.44 127.28 336.44 128.75 327.01 128.75"/>
      <polygon class="cls-1" points="339.78 128.75 339.78 113.18 341.5 113.18 341.5 127.21 348.19 127.21 348.19 128.75 339.78 128.75"/>
      <polygon class="cls-1" points="274.2 128.75 274.2 116.72 274.28 114.92 268.99 128.75 266.25 128.75 261.54 114.92 261.66 116.42 261.66 128.75 259.91 128.75 259.91 113.18 262.75 113.18 267.72 127.72 273.29 113.18 275.94 113.18 275.94 128.75 274.2 128.75"/>
      <path class="cls-1" d="M286.68,116.66l-.85-2.49-.93,2.49-1.86,4.82h5.28l-1.64-4.82ZM290.79,128.75l-1.99-5.85h-6.31l-2.24,5.85h-1.74l6.05-15.57h2.74l5.32,15.57h-1.83Z"/>
      <polygon class="cls-1" points="304.31 128.75 296.43 114.59 296.59 116.42 296.59 128.75 294.8 128.75 294.8 113.18 297.57 113.18 305.69 127.74 305.47 125.44 305.47 113.18 307.22 113.18 307.22 128.75 304.31 128.75"/>
      <polygon class="cls-1" points="208.87 152.08 200.97 137.9 201.12 139.74 201.12 152.08 199.36 152.08 199.36 136.49 202.1 136.49 210.24 151.07 210 148.76 210 136.49 211.8 136.49 211.8 152.08 208.87 152.08"/>
      <polygon class="cls-1" points="173.79 138.01 173.79 152.1 172 152.1 172 138.01 166.6 138.01 166.6 136.54 179.18 136.54 179.18 138.01 173.79 138.01"/>
      <path class="cls-1" d="M185.43,135.94l-.4-1.24,5-1.79.56,1.59-5.15,1.44ZM187.69,137.82c-4.01,0-6.06,2.79-6.06,6.42s1.98,6.59,5.93,6.59c4.19,0,6.16-2.84,6.16-6.55s-2.16-6.46-6.03-6.46M187.49,152.35c-4.87,0-7.7-3.31-7.7-8.07s3.29-8,8.13-8,7.63,3.46,7.63,8.02c0,4.82-3.03,8.05-8.06,8.05"/>
      <rect class="cls-1" x="216.36" y="136.54" width="1.78" height="15.55"/>
      <path class="cls-1" d="M229.68,137.82c-4.05,0-6.11,2.79-6.11,6.42s1.98,6.59,5.93,6.59c4.19,0,6.15-2.84,6.15-6.55s-2.12-6.46-5.98-6.46M229.45,152.35c-4.89,0-7.69-3.31-7.69-8.07s3.25-8,8.12-8,7.64,3.46,7.64,8.02c0,4.82-3.04,8.05-8.07,8.05"/>
      <polygon class="cls-1" points="135.77 114.59 135.77 120.64 142.27 120.64 142.27 122.09 135.77 122.09 135.77 128.75 134.1 128.75 134.1 113.15 142.71 113.15 142.71 114.59 135.77 114.59"/>
      <g>
        <path class="cls-1" d="M151.99,129.04c-2.94,0-6.1-1.08-6.1-5.58v-10.31h1.77v10.14c0,3.45,2.17,4.2,4.33,4.2,2.35,0,4.35-.98,4.35-4.74v-9.6h1.66v9.71c0,4.97-3.33,6.17-6.01,6.17"/>
        <path class="cls-1" d="M181.87,114.6h-2.21v12.69h2.63c3.85,0,6.18-2.07,6.18-6.15,0-4.45-2.65-6.54-6.61-6.54M182.06,128.75h-4.03v-15.62h3.93c4.73,0,8.18,2.36,8.18,7.79s-3.14,7.82-8.07,7.82"/>
      </g>
      <path class="cls-1" d="M199.09,116.66l-.81-2.49-.93,2.49-1.76,4.81h5.07l-1.58-4.81ZM203.05,128.75l-1.93-5.85h-6.04l-2.16,5.85h-1.66l5.81-15.59h2.61l5.12,15.59h-1.75Z"/>
      <g>
        <path class="cls-1" d="M217.64,128.38l-.47-1.48c-.45.19-1.32.51-3.37.51-3.4,0-6.24-2.06-6.24-6.59s2.72-6.25,5.82-6.25c2.28,0,3.21.38,3.74.6l.47-1.45c-.28-.13-1.54-.74-4.25-.74-4.81,0-7.51,3.17-7.51,8.07,0,4.23,2.43,7.51,6.82,7.87.07.2.13.44.13.65,0,.57-.32,1.13-1.19,1.72l.51.97c1.64-.75,2.21-1.73,2.18-2.7,0-.21-.06-.44-.11-.62,2.09-.08,3.13-.47,3.46-.57"/>
        <path class="cls-1" d="M226.6,116.66l-.81-2.49-.93,2.49-1.77,4.81h5.06l-1.56-4.81ZM227.03,112.57c-1.01,0-1.74-.97-2.56-.97-.68,0-1.13.18-1.68.67l-.53-1.17s.93-1.11,2.29-1.11c1.08,0,1.75.96,2.54.96.94,0,1.59-.69,1.59-.69l.58,1.11s-.93,1.21-2.24,1.21M230.55,128.75l-1.94-5.85h-6.03l-2.15,5.85h-1.69l5.82-15.59h2.62l5.11,15.59h-1.74Z"/>
      </g>
      <polygon class="cls-1" points="171.31 128.75 163.42 114.59 163.56 116.42 163.56 128.75 161.78 128.75 161.78 113.18 164.55 113.18 172.66 127.76 172.44 125.44 172.44 113.18 174.22 113.18 174.22 128.75 171.31 128.75"/>
      <g>
        <path class="cls-1" d="M241.19,114.49c-4.03,0-6.07,2.79-6.07,6.43s1.99,6.57,5.94,6.57c4.18,0,6.13-2.87,6.13-6.56s-2.13-6.44-6-6.44M240.99,129.03c-4.91,0-7.71-3.33-7.71-8.09s3.28-8.01,8.12-8.01,7.64,3.48,7.64,8.06-3.02,8.05-8.06,8.05"/>
        <path class="cls-1" d="M252.69,137.96h-2.37v12.69h2.81c4.1,0,6.59-2.07,6.59-6.15,0-4.44-2.79-6.54-7.03-6.54M252.88,152.09h-4.33v-15.6h4.21c5.08,0,8.76,2.38,8.76,7.75s-3.37,7.85-8.63,7.85"/>
      </g>
      <path class="cls-1" d="M270.76,140.03l-.87-2.5-.98,2.5-1.9,4.79h5.41l-1.66-4.79ZM274.96,152.09l-2.03-5.84h-6.48l-2.29,5.84h-1.8l6.21-15.55h2.8l5.5,15.55h-1.9Z"/>
      <path class="cls-1" d="M314.51,137.82c-4.03,0-6.09,2.79-6.09,6.42s2,6.59,5.95,6.59c4.18,0,6.15-2.84,6.15-6.55s-2.14-6.46-6.01-6.46M314.29,152.35c-4.88,0-7.69-3.31-7.69-8.07s3.29-8,8.13-8,7.64,3.46,7.64,8.02c0,4.82-3.03,8.05-8.07,8.05"/>
      <polygon class="cls-1" points="329.88 138.01 329.88 152.1 328.09 152.1 328.09 138.01 322.7 138.01 322.7 136.54 335.29 136.54 335.29 138.01 329.88 138.01"/>
      <path class="cls-1" d="M342.09,140.03l-.87-2.5-.96,2.5-1.9,4.79h5.41l-1.67-4.79ZM346.31,152.09l-2.05-5.84h-6.47l-2.29,5.84h-1.8l6.23-15.55h2.8l5.46,15.55h-1.87Z"/>
      <polygon class="cls-1" points="301.82 152.09 301.82 140.06 301.92 138.3 296.47 152.09 293.65 152.09 288.81 138.3 288.96 139.76 288.96 152.09 287.17 152.09 287.17 136.54 290.05 136.54 295.16 151.07 300.91 136.54 303.6 136.54 303.6 152.09 301.82 152.09"/>
    </g>
  </g>
</svg>