<?xml version="1.0" encoding="UTF-8"?>
<svg id="Camada_2" data-name="Camada 2" xmlns="http://www.w3.org/2000/svg" viewBox="0 0 2282.71 348">
  <defs>
    <style>
      .cls-1 {
        fill: #fff;
      }
    </style>
  </defs>
  <g id="Camada_1-2" data-name="Camada 1">
    <g>
      <polygon class="cls-1" points="1165.96 246.56 1165.75 150.23 1118 229.95 1105.96 229.95 1058.21 151.47 1058.21 246.56 1032.47 246.56 1032.47 101.23 1054.68 101.23 1112.4 197.56 1169.07 101.23 1191.29 101.23 1191.5 246.56 1165.96 246.56"/>
      <path class="cls-1" d="M1388.72,248.84l-18.27-17.64c-13.08,11.21-29.69,17.43-48.79,17.43-30.72,0-52.94-15.98-52.94-38.82,0-18.06,9.97-30.73,33.64-44.01-11.84-11.84-16.2-21.39-16.2-31.97,0-20.35,16.61-34.26,42.15-34.26,23.46,0,38.82,12.25,38.82,31.97,0,14.95-8.72,25.75-29.69,37.58l31.35,29.9c3.53-6.86,6.23-15.16,8.1-24.5l20.97,6.85c-2.7,12.66-7.06,23.87-13.08,33.22l18.27,17.43-14.33,16.82ZM1355.09,216.45l-38.41-36.74c-16.82,9.34-22.63,17.02-22.63,27.4,0,12.04,11.63,20.35,29.48,20.35,12.04,0,22.63-3.74,31.56-11.01M1309.83,133.41c0,6.44,2.7,11.21,13.08,21.59,16.82-9.13,22.21-15.15,22.21-23.04,0-8.31-6.02-13.91-16.81-13.91-11.63,0-18.48,6.43-18.48,15.36"/>
      <path class="cls-1" d="M1464.92,173.9c0-43.39,33.22-74.74,77.85-74.74,23.67,0,44.02,8.51,57.51,24.29l-17.44,16.4c-10.59-11.42-23.66-17.02-38.82-17.02-30.1,0-51.9,21.17-51.9,51.07s21.8,51.07,51.9,51.07c15.16,0,28.23-5.6,38.82-17.23l17.44,16.61c-13.49,15.78-33.84,24.29-57.71,24.29-44.43,0-77.65-31.35-77.65-74.74"/>
      <path class="cls-1" d="M1608.59,173.9c0-42.98,33.22-74.74,78.27-74.74s78.27,31.56,78.27,74.74-33.22,74.74-78.27,74.74-78.27-31.76-78.27-74.74M1737.93,173.9c0-29.69-21.8-51.07-51.07-51.07s-51.07,21.38-51.07,51.07,21.79,51.07,51.07,51.07,51.07-21.38,51.07-51.07"/>
      <path class="cls-1" d="M1777.37,231.2l9.34-20.97c11.63,9.34,30.11,15.99,47.96,15.99,22.63,0,32.18-8.1,32.18-18.9,0-31.34-86.37-10.79-86.37-64.77,0-23.46,18.69-43.39,58.55-43.39,17.44,0,35.71,4.57,48.37,12.87l-8.51,20.97c-13.08-7.68-27.4-11.42-40.07-11.42-22.42,0-31.55,8.72-31.55,19.72,0,30.94,86.16,10.8,86.16,64.16,0,23.25-18.9,43.18-58.76,43.18-22.63,0-45.26-7.06-57.3-17.44"/>
      <polygon class="cls-1" points="1943.46 124.07 1895.29 124.07 1895.29 101.23 2018.61 101.23 2018.61 124.07 1970.45 124.07 1970.45 246.56 1943.46 246.56 1943.46 124.07"/>
      <path class="cls-1" d="M2121.81,212.93h-72.67l-14.32,33.63h-27.82l65.4-145.33h26.57l65.6,145.33h-28.23l-14.53-33.63ZM2112.88,191.75l-27.41-63.53-27.19,63.53h54.6Z"/>
      <path class="cls-1" d="M2166.65,231.2l9.34-20.97c11.63,9.34,30.11,15.99,47.96,15.99,22.63,0,32.18-8.1,32.18-18.9,0-31.34-86.37-10.79-86.37-64.77,0-23.46,18.69-43.39,58.55-43.39,17.44,0,35.71,4.57,48.37,12.87l-8.51,20.97c-13.08-7.68-27.4-11.42-40.07-11.42-22.42,0-31.55,8.72-31.55,19.72,0,30.94,86.16,10.8,86.16,64.16,0,23.25-18.9,43.18-58.76,43.18-22.63,0-45.26-7.06-57.3-17.44"/>
      <path class="cls-1" d="M222.84,120.9c-11.95-18.03-32.45-21.55-46.32-21.87-12.19-.28-65.1-.33-95.91-.35-60.66-.04-25.97-.02-80.61-.02v28.98c64.88,0,141.88-.15,175.59.37,6.02.09,11.99.7,16.72,4.89,4.41,3.91,5.96,10.07,4,15.42-3.18,8.65-11.97,10.8-20.72,10.93-13.36.21-50.07.29-77.47.32-67.18.09-38.08.05-98.12.05v28.89c64.83,0,142.01-.12,175.59.37,10.48.15,21.55,3.79,21.55,15.47s-11.07,15.5-21.55,15.66c-33.5.49-110.71.36-175.59.36v28.96c65.08,0,150.25.23,176.52-.38,13.87-.32,34.38-3.84,46.32-21.87,11.21-16.92,8.47-38.96-6.25-53.09,14.73-14.14,17.47-36.16,6.25-53.09"/>
      <path class="cls-1" d="M752.5,116.07c-19.8-14.21-41.31-16.22-58.74-16.62-17.18-.4-43.09-.58-66-.68-55.86-.22-22.28-.12-75.5-.12v29.07c56.64,0,96.35-.47,140.08.76,12.85.36,26.62,1.72,39.02,10.33,11.75,8.16,18.72,21.15,18.72,35.18s-6.78,27.04-18.53,35.2c-12.4,8.61-26.17,9.96-39.02,10.32-43.73,1.23-83.44.76-140.08.76l-.19,29.05c56.97,0,97.92.21,141.5-.8,17.43-.4,38.94-2.41,58.74-16.62,18.78-13.48,30.16-34.64,30.16-57.91s-11.38-44.44-30.16-57.92"/>
      <path class="cls-1" d="M318.19,163.72c-15.17-.29-20-5.25-20.11-20.36-.1-13.97-.04-30.53-.04-44.71h-33.45c0,14.34-.27,43.37.29,57.39,1.09,27.26,10.04,35.75,37.88,36.7,19.31.66,34.65.43,61.35.41v-29.2c-21.4.01-30.11.06-45.92-.23"/>
      <path class="cls-1" d="M484.01,143.88c-.11,14.72-4.9,19.55-20.11,19.84-7.26.14-26.32.21-42.01.24v.02h-.14c-16.03-.01-33.13-.03-43.16-.03v85.37h39.33v-56.17h3.97v.04c20.46-.02,46.03-.1,55.69-.4,29.54-.9,38.56-9.23,39.64-36.75.14-3.68.23-8.33.28-13.44v-43.95h-33.45c0,14.54.06,30.87-.04,45.23"/>
      <polyline class="cls-1" points="905.83 0 905.83 348 910.08 348 910.08 0"/>
    </g>
  </g>
</svg>