<?xml version="1.0" encoding="UTF-8"?>
<svg id="Camada_2" data-name="Camada 2" xmlns="http://www.w3.org/2000/svg" viewBox="0 0 782.66 279.63">
  <defs>
    <style>
      .cls-1 {
        fill: #fff;
      }
    </style>
  </defs>
  <g id="Camada_1-2" data-name="Camada 1">
    <g>
      <path class="cls-1" d="M222.84,22.27C210.89,4.24,190.39.72,176.52.4,164.33.12,111.42.07,80.61.05,19.95,0,54.64.03,0,.03v28.98c64.88,0,141.88-.15,175.59.37,6.02.09,11.99.7,16.72,4.89,4.41,3.91,5.96,10.07,4,15.42-3.18,8.65-11.97,10.8-20.72,10.93-13.36.21-50.07.29-77.47.32-67.18.09-38.08.05-98.12.05v28.89c64.83,0,142.01-.12,175.59.37,10.48.15,21.55,3.79,21.55,15.47s-11.07,15.5-21.55,15.65c-33.5.5-110.71.37-175.59.37v28.96c65.08,0,150.25.23,176.52-.38,13.87-.32,34.38-3.84,46.32-21.87,11.21-16.92,8.47-38.96-6.25-53.09,14.73-14.14,17.47-36.16,6.25-53.09"/>
      <path class="cls-1" d="M752.5,17.44c-19.8-14.21-41.31-16.22-58.74-16.62-17.18-.4-43.09-.58-66-.68-55.86-.22-22.28-.12-75.5-.12v29.07c56.64,0,96.35-.47,140.08.76,12.85.36,26.62,1.72,39.02,10.33,11.75,8.16,18.72,21.15,18.72,35.18s-6.78,27.04-18.53,35.2c-12.4,8.61-26.17,9.96-39.02,10.32-43.73,1.23-83.44.76-140.08.76l-.19,29.05c56.97,0,97.92.21,141.5-.8,17.43-.41,38.94-2.41,58.74-16.62,18.78-13.48,30.16-34.64,30.16-57.91s-11.38-44.44-30.16-57.92"/>
      <path class="cls-1" d="M318.19,65.09c-15.17-.29-20-5.25-20.11-20.36-.1-13.97-.04-30.53-.04-44.71h-33.45c0,14.34-.27,43.37.29,57.39,1.09,27.26,10.04,35.75,37.88,36.7,19.31.66,34.65.43,61.35.41v-29.2c-21.4.01-30.12.06-45.92-.23"/>
      <path class="cls-1" d="M484.01,45.25c-.11,14.72-4.9,19.55-20.11,19.84-7.26.14-26.32.21-42.01.24v.02h-.14c-16.03,0-33.13-.03-43.16-.03v85.37h39.33v-56.17h3.97v.04c20.46-.02,46.03-.1,55.69-.4,29.54-.9,38.56-9.23,39.64-36.75.14-3.68.23-8.33.28-13.44V.02h-33.45c0,14.54.06,30.87-.04,45.23"/>
      <polygon class="cls-1" points="190.69 278.7 190.61 239.39 171.12 271.92 166.2 271.92 146.72 239.9 146.72 278.7 136.21 278.7 136.21 219.39 145.28 219.39 168.83 258.7 191.96 219.39 201.03 219.39 201.11 278.7 190.69 278.7"/>
      <path class="cls-1" d="M281.61,279.63l-7.46-7.2c-5.34,4.57-12.12,7.11-19.91,7.11-12.54,0-21.61-6.52-21.61-15.84,0-7.37,4.07-12.54,13.73-17.96-4.83-4.83-6.61-8.73-6.61-13.05,0-8.3,6.78-13.98,17.2-13.98,9.57,0,15.84,5,15.84,13.05,0,6.1-3.55,10.5-12.11,15.33l12.79,12.2c1.44-2.79,2.54-6.18,3.31-10l8.55,2.8c-1.1,5.17-2.88,9.75-5.34,13.56l7.46,7.11-5.84,6.87ZM267.88,266.41l-15.67-15c-6.87,3.82-9.24,6.95-9.24,11.19,0,4.91,4.74,8.3,12.03,8.3,4.92,0,9.24-1.53,12.88-4.49M249.41,232.52c0,2.63,1.1,4.57,5.34,8.81,6.86-3.73,9.06-6.18,9.06-9.4,0-3.39-2.46-5.68-6.86-5.68-4.74,0-7.54,2.63-7.54,6.27"/>
      <path class="cls-1" d="M312.7,249.04c0-17.71,13.56-30.5,31.77-30.5,9.66,0,17.97,3.47,23.47,9.91l-7.12,6.69c-4.32-4.66-9.65-6.94-15.84-6.94-12.28,0-21.18,8.64-21.18,20.84s8.9,20.84,21.18,20.84c6.19,0,11.52-2.28,15.84-7.03l7.12,6.78c-5.5,6.44-13.81,9.91-23.55,9.91-18.13,0-31.69-12.79-31.69-30.5"/>
      <path class="cls-1" d="M371.33,249.04c0-17.54,13.55-30.5,31.94-30.5s31.94,12.88,31.94,30.5-13.56,30.5-31.94,30.5-31.94-12.96-31.94-30.5M424.11,249.04c0-12.12-8.9-20.84-20.84-20.84s-20.85,8.72-20.85,20.84,8.9,20.84,20.85,20.84,20.84-8.73,20.84-20.84"/>
      <path class="cls-1" d="M440.22,272.43l3.81-8.56c4.75,3.82,12.29,6.53,19.58,6.53,9.23,0,13.13-3.31,13.13-7.71,0-12.8-35.25-4.41-35.25-26.44,0-9.57,7.63-17.71,23.89-17.71,7.12,0,14.58,1.87,19.74,5.26l-3.47,8.55c-5.34-3.13-11.18-4.66-16.35-4.66-9.15,0-12.88,3.56-12.88,8.05,0,12.63,35.16,4.41,35.16,26.18,0,9.49-7.71,17.63-23.97,17.63-9.24,0-18.48-2.88-23.39-7.12"/>
      <polygon class="cls-1" points="508 228.71 488.34 228.71 488.34 219.39 538.67 219.39 538.67 228.71 519.02 228.71 519.02 278.7 508 278.7 508 228.71"/>
      <path class="cls-1" d="M580.78,264.97h-29.65l-5.85,13.73h-11.35l26.69-59.31h10.84l26.78,59.31h-11.53l-5.93-13.73ZM577.14,256.33l-11.18-25.92-11.1,25.92h22.28Z"/>
      <path class="cls-1" d="M599.08,272.43l3.81-8.56c4.75,3.82,12.29,6.53,19.58,6.53,9.23,0,13.13-3.31,13.13-7.71,0-12.8-35.25-4.41-35.25-26.44,0-9.57,7.63-17.71,23.89-17.71,7.12,0,14.58,1.87,19.74,5.26l-3.47,8.55c-5.34-3.13-11.18-4.66-16.35-4.66-9.15,0-12.88,3.56-12.88,8.05,0,12.63,35.16,4.41,35.16,26.18,0,9.49-7.71,17.63-23.97,17.63-9.24,0-18.48-2.88-23.39-7.12"/>
    </g>
  </g>
</svg>