<?xml version="1.0" encoding="UTF-8"?>
<svg id="Camada_2" data-name="Camada 2" xmlns="http://www.w3.org/2000/svg" viewBox="0 0 589.63 283.25">
  <defs>
    <style>
      .cls-1, .cls-2 {
        fill-rule: evenodd;
      }

      .cls-1, .cls-3 {
        fill: #12a1db;
      }

      .cls-2 {
        fill: #004a8c;
      }
    </style>
  </defs>
  <g id="Camada_1-2" data-name="Camada 1">
    <path class="cls-3" d="M408.83,212.65l1.94-15.46c.31-2.45.21-4.15-.27-5.09-.5-.93-1.48-1.4-2.99-1.4-1.87,0-3.25.65-4.14,1.95-.89,1.29-1.59,3.96-2.09,7.98l-1.5,12.01h-9.66l1.94-15.46c.31-2.49.23-4.2-.26-5.11-.48-.92-1.48-1.38-2.97-1.38-1.87,0-3.26.64-4.17,1.93-.91,1.27-1.61,3.95-2.12,8.01l-1.5,12.01h-9.71l3.55-28.35h9.83l-.62,4.94c1.43-2,2.97-3.48,4.63-4.43,1.66-.95,3.54-1.42,5.64-1.42,2.3,0,4.13.44,5.49,1.33,1.35.89,2.24,2.22,2.66,4,1.33-1.8,2.84-3.13,4.54-4.01,1.7-.88,3.63-1.32,5.78-1.32,1.71,0,3.16.29,4.37.85,1.21.57,2.18,1.43,2.9,2.57.58.9.93,1.95,1.08,3.15.14,1.2.04,3.14-.3,5.83l-.08.62-2.03,16.22h-9.91Z"/>
    <polygon class="cls-3" points="458.44 167.83 450.2 179.39 443.74 179.39 448.56 167.97 458.44 167.83"/>
    <path class="cls-3" d="M461.3,184.3l-1.81,14.49c-.4,3.2-.96,5.57-1.67,7.11-.7,1.54-1.74,2.91-3.11,4.11-1.4,1.25-3.09,2.19-5.04,2.81-1.95.62-4.19.93-6.71.93s-4.66-.31-6.45-.93c-1.78-.61-3.26-1.55-4.4-2.81-1.07-1.16-1.76-2.52-2.08-4.08-.31-1.56-.26-3.94.14-7.14l1.81-14.49h9.54l-1.89,15.13c-.3,2.38-.12,4.09.53,5.14.65,1.06,1.86,1.59,3.62,1.59s3.11-.52,4.02-1.56c.91-1.03,1.51-2.76,1.82-5.17l1.89-15.13h9.77Z"/>
    <path class="cls-3" d="M466.05,210.29l3.02-7.64c1.31,1.27,2.78,2.25,4.45,2.93,1.67.68,3.39,1.02,5.16,1.02,1.26,0,2.24-.2,2.94-.6.71-.4,1.11-.99,1.21-1.75.16-1.26-1.05-2.19-3.61-2.81-.84-.21-1.51-.38-2.02-.54-2.89-.82-4.93-1.9-6.12-3.24-1.18-1.34-1.65-3.08-1.38-5.21.34-2.75,1.65-4.94,3.93-6.59,2.28-1.65,5.18-2.47,8.71-2.47,1.82,0,3.64.21,5.47.63,1.82.42,3.67,1.07,5.52,1.95l-2.94,6.88c-1.21-.9-2.47-1.58-3.79-2.05-1.3-.47-2.64-.7-4.01-.7-1.14,0-2.02.18-2.64.54-.63.35-.98.86-1.07,1.54-.13,1.01,1.08,1.86,3.62,2.55.57.17,1.01.3,1.3.36,3.34,1,5.6,2.17,6.79,3.5,1.18,1.34,1.64,3.15,1.35,5.43-.36,2.9-1.77,5.25-4.22,7.03-2.45,1.79-5.51,2.68-9.17,2.68-2.49,0-4.76-.29-6.83-.85-2.06-.57-3.96-1.44-5.68-2.6"/>
    <polygon class="cls-3" points="497.05 212.65 500.6 184.3 510.62 184.3 507.07 212.65 497.05 212.65"/>
    <path class="cls-3" d="M538.59,193.62c-.87-.86-1.72-1.49-2.57-1.88-.85-.39-1.76-.59-2.76-.59-1.98,0-3.65.65-4.98,1.96-1.33,1.31-2.14,3.08-2.42,5.33-.27,2.17.12,3.9,1.17,5.19,1.05,1.29,2.61,1.94,4.67,1.94,1.02,0,1.99-.2,2.93-.6.94-.4,1.86-1.02,2.77-1.87l-1.09,8.68c-1.28.67-2.54,1.17-3.78,1.48-1.24.32-2.49.48-3.77.48-4.36,0-7.71-1.4-10.07-4.2-2.35-2.8-3.24-6.48-2.67-11.05.56-4.44,2.39-8.06,5.5-10.87,3.11-2.82,6.83-4.22,11.15-4.22,1.44,0,2.72.14,3.85.42,1.12.28,2.17.73,3.12,1.35l-1.06,8.45Z"/>
    <path class="cls-3" d="M577.45,184.3l-3.55,28.35h-9.18l.58-4.61c-1.56,1.96-3.21,3.41-4.96,4.32-1.75.92-3.74,1.38-5.94,1.38-3.78,0-6.63-1.38-8.55-4.14-1.92-2.76-2.58-6.46-2-11.1.58-4.62,2.23-8.3,4.93-11.02,2.71-2.72,6.06-4.08,10.06-4.08,2.14,0,3.92.45,5.35,1.36,1.43.91,2.58,2.31,3.44,4.2l.58-4.66h9.24ZM566.89,198.44c.28-2.21-.1-3.96-1.12-5.25-1.02-1.29-2.55-1.94-4.58-1.94s-3.73.64-5.06,1.93c-1.33,1.27-2.13,3.04-2.41,5.26-.28,2.2.1,3.95,1.12,5.22,1.02,1.27,2.54,1.91,4.56,1.91s3.72-.63,5.06-1.91c1.34-1.27,2.15-3.02,2.43-5.22Z"/>
    <path class="cls-1" d="M507.27,167c3.31,0,6,2.68,6,6s-2.68,6-6,6-6-2.68-6-6,2.68-6,6-6"/>
    <polygon class="cls-2" points="0 161.47 19.87 46.87 77.75 46.87 79.33 93.85 100.88 46.87 154.59 46.87 134.72 161.47 91.3 161.47 103.97 88.39 69.51 161.47 37.19 161.47 34.87 85.28 21.66 161.47 0 161.47"/>
    <path class="cls-2" d="M221.6,120.58l-2.92,16.36c-.93,5.19-5.61,7.53-10.36,6.78-4.15-.66-7-3.83-6.51-8.91.44-4.47,3.42-8.28,7.7-9.84l12.08-4.39ZM259.87,161.47l9.19-53.04c4.14-23.86-7.23-35.09-46.57-35.25-31.12-.12-45.08,8.39-51.58,27.64h30.1c3.02-6.91,8.02-12.68,17.43-12.36,6.48.22,10.07,5.72,9.61,9.27-1.08,8.39-10.76,10.69-20.38,10.69h-12.04c-16.56,0-37.89,10.53-38.34,29.47-.63,26.58,30.64,32.27,58.57,15.73l-1.36,7.84h45.37Z"/>
    <path class="cls-2" d="M232.53,194.61c9.9,0,17.92,19.85,17.92,44.32s-8.03,44.32-17.92,44.32-17.92-19.85-17.92-44.32,8.03-44.32,17.92-44.32"/>
    <path class="cls-1" d="M380.73,71.29l-11.02,24.45h-43.49s7.75-31.01,23.25-45.09c15.5-14.08,26.84-19.78,35.07-23.55,12.26-5.62,28.71-9.57,33.38-10.63.27.73.5,1.47.71,2.22-4.95,1.15-21.29,4.44-38.69,14.73-20.91,12.36-33.72,31.26-36.07,37.87h36.87Z"/>
    <path class="cls-1" d="M246.66,278.42c49.32-12.1,74.57-51.37,78.16-109.55-3.86,17.61-8.22,36.37-18.87,51.24-10.99,15.34-28.55,26.59-51.18,31.7-1.04,9.15-3.74,18.02-8.11,26.61"/>
    <path class="cls-1" d="M340.58,103.26c5.38,0,9.74,3.18,9.74,7.09s-4.36,7.09-9.74,7.09-9.74-3.18-9.74-7.09,4.36-7.09,9.74-7.09"/>
    <path class="cls-1" d="M338.15,126.09c5.38,0,9.74,3.18,9.74,7.09s-4.36,7.09-9.74,7.09-9.74-3.18-9.74-7.09,4.36-7.09,9.74-7.09"/>
    <path class="cls-1" d="M336.15,148.7c5.38,0,9.74,3.18,9.74,7.09s-4.36,7.09-9.74,7.09-9.74-3.18-9.74-7.09,4.36-7.09,9.74-7.09"/>
    <path class="cls-2" d="M249.62,205.83c7.2,4.8,15.14,6.84,21.67,2.8,11.98-7.41,20.06-25.75,23.99-57.59,4.45-36.06,4.42-77.32,37.49-108.61,18.52-17.52,50.7-29.54,81.74-34.82l-.91-1.9,40.39-5.71-3.49,12.94-31.67,6.54c-.48-1.8-.99-3.54-1.95-5.21-41.47,7.1-75.03,26.8-91.56,66.78-8.97,21.69-7.11,44.37-8.37,66.58-1.47,25.97-7.37,44.66-15.25,58.19-11.16,19.15-27.04,28.07-46.28,29.66-.51-11.71-2.5-22.03-5.81-29.65"/>
    <path class="cls-2" d="M426.82,108.43h20.61c.44-2.54.88-5.07,1.32-7.61,1.72-7.1-.77-11.53-7.58-11.72-7.45-.21-11.1,5.02-13.03,11.72l-1.32,7.61ZM438.13,73.02c41.01-.95,52.3,13.74,48.41,35.4l-2.81,15.66h-59.64l-1.1,6.37c-2.13,12.27,2.01,17.69,10.03,17.76,8.5.08,13.75-5.21,16.24-17.76h34.48c-3.98,26.86-22.79,32.84-52.68,33.2-39.52.47-53.9-16.94-47.22-53.17,5.3-28.75,23.61-36.75,54.28-37.46Z"/>
    <path class="cls-2" d="M539.78,89.42h9.42c10.13,0,6.42,19.01-3.27,19.01h-9.42l3.27-19.01ZM494.8,161.47h32.5l6.48-37.38c5.62.39,7.32,2.51,7.77,6.37l3.57,31.01h33.14l-3.9-31.01c-.68-5.41-2.54-9.5-5.69-11.64,13.43-1.19,21.03-9.3,20.96-25.5-.06-13.38-7.52-19.33-23.07-19.33h-56.59l-15.17,87.49Z"/>
  </g>
</svg>