<svg width="207" height="48" viewBox="0 0 207 48" fill="none" xmlns="http://www.w3.org/2000/svg">
<g clip-path="url(#clip0_1577_799)">
<path d="M23.6393 47.3299V23.9998H46.6227V0.66966H23.6393V23.9998H0.655859V47.3299H23.6393ZM0.655859 47.9998H0V22.3231H21.9875V0.00390625H47.2826V25.6806H25.2951V47.9998H0.655859Z" fill="white"/>
<path d="M172.402 35.042H174.657V47.7324H172.402V35.042ZM183.73 42.3571L183.426 41.5229L182.989 40.1955L182.535 38.7982L182.39 38.2722C182.171 38.9667 181.944 39.6078 181.726 40.2037C181.458 40.9352 181.203 41.6667 180.924 42.3571H183.726H183.73ZM183.458 35.042L188.122 47.7324H185.56L184.349 44.1982H180.244L178.981 47.7324H176.697L181.79 35.042H183.462H183.458ZM79.5371 36.8626H75.3185V40.1585H79.4399V41.9708H75.3185V45.8955H80.2617V47.7324H73.0635V35.042H79.5411V36.8626H79.5371ZM93.966 47.7283H92.2332L90.715 45.9119L89.1685 43.9845C88.0025 42.579 87.0187 41.3667 86.1118 40.2366L84.9621 38.7653L84.9216 47.7283H82.954V35.0379H84.6179L86.1199 36.8585L87.6746 38.7242L87.8163 38.9092C89.2171 40.5941 90.63 42.2955 91.9619 44.042L91.9984 35.042H93.966V47.7324V47.7283ZM108.164 41.6009V47.0502C106.731 47.5475 105.282 47.9174 103.751 47.9174C101.581 47.9174 99.8849 47.2804 98.723 45.9407C97.6056 44.6256 97.0388 43.0804 97.0388 41.3338V41.0133C97.1278 39.4681 97.7716 38.0461 98.9537 36.7722C100.16 35.4571 101.852 34.8242 103.974 34.8242C104.873 34.8242 105.666 34.9516 106.35 35.2023C107.095 35.4653 107.597 35.753 108.201 36.2585L107.176 37.7585C106.67 37.3968 106.269 37.1749 105.674 36.9489C105.188 36.7681 104.626 36.6653 103.986 36.6653C102.512 36.6653 101.419 37.1092 100.658 37.9927C99.8849 38.8639 99.4922 39.9776 99.4922 41.3297C99.4922 42.7681 99.9132 43.9187 100.743 44.7982C101.585 45.6818 102.61 46.1256 103.82 46.1256C104.286 46.1256 104.715 46.0845 105.083 46.0311C105.383 45.9653 105.662 45.8831 105.905 45.7886V41.5927H108.172L108.164 41.6009ZM118.136 36.8626H113.921V40.1585H118.047V41.9708H113.921V45.8955H118.86V47.7324H111.654V35.042H118.136V36.8626ZM132.577 47.7283H130.832L129.309 45.9119L127.771 43.9845C126.601 42.579 125.617 41.3667 124.71 40.2366L123.561 38.7653L123.52 47.7283H121.553V35.0379H123.208L124.706 36.8585L126.269 38.7242L126.415 38.9092C127.812 40.5941 129.229 42.2955 130.556 44.042L130.589 35.042H132.573V47.7324L132.577 47.7283ZM145.969 47.7283H143.71V41.7365H138.516V47.7283H136.253V35.0379H138.516V39.9242H143.71V35.0379H145.969V47.7283ZM155.046 42.3571L154.742 41.5229L154.305 40.1955L153.852 38.7982L153.698 38.2722C153.487 38.9667 153.26 39.6078 153.042 40.2037C152.775 40.9352 152.524 41.6667 152.24 42.3571H155.042H155.046ZM154.771 35.042L159.43 47.7324H156.868L155.661 44.1982H151.548L150.285 47.7324H148.001L153.095 35.042H154.767H154.771ZM163.77 40.9064H164.402C165.147 40.9064 165.621 40.7338 165.884 40.4626C166.276 40.0434 166.511 39.5585 166.556 38.9955C166.572 38.8557 166.592 38.7242 166.592 38.5968C166.592 37.9064 166.398 37.4996 166.11 37.2694C165.77 37.0064 165.366 36.8585 164.864 36.8585H163.766V40.9064H163.77ZM161.503 35.042H165.22C166.24 35.042 167.119 35.3256 167.839 35.8722C168.604 36.4516 168.957 37.3516 168.957 38.4612C168.957 39.39 168.758 40.1749 168.321 40.7913C167.985 41.2763 167.572 41.7037 167.078 42.0776L170.09 47.2968L167.815 47.9996L165.034 42.7434H163.77V47.7283H161.503V35.0379V35.042Z" fill="white"/>
<path d="M118.921 0H120.998L124.516 8.85616H131.88V10.7055H125.253L128.354 18.5137H125.204L122.285 10.7055H118.459L119.111 8.85616H121.597L119.528 3.31644L117.605 8.85616L116.962 10.7055L114.265 18.5137H111.484L118.921 0ZM106.48 18.5096V1.8411H112.593V0H97.4436V1.8411H103.747V18.5096H106.476H106.48ZM196.11 18.5096H206.567V16.6685H198.729V0.0123288H196.11V18.5096ZM191.835 0.0123288H189.219V18.5096H191.835V0.0123288ZM182.438 10.3726V16.6521C181.386 17.1493 180.199 17.3137 178.612 17.3137C174.511 17.3137 171.256 14.1575 171.256 9.47671C171.256 5.1411 173.997 1.85753 178.904 1.85753C180.973 1.85753 182.705 2.58493 183.831 3.34521L184.908 1.80822C183.778 0.879452 181.62 0.0123288 178.875 0.0123288C172.086 0.0123288 168.361 4.84521 168.361 9.53014C168.361 14.6014 171.823 19.1507 178.515 19.1507C180.924 19.1507 183.215 18.5589 185.041 17.9096V10.3726H182.43H182.438ZM87.5329 17.2973C82.6949 17.2973 81.035 12.8795 81.035 9.2548C81.035 5.63014 82.9014 1.8411 87.5329 1.8411C92.1644 1.8411 94.0186 5.79452 94.0186 9.2548C94.0186 12.7151 92.3668 17.2973 87.5329 17.2973ZM87.5329 19.1425C93.302 19.1425 96.8768 14.7822 96.8768 9.2589C96.8768 4.07671 92.9255 0.00410959 87.5329 0.00410959C82.1403 0.00410959 78.1808 4.08082 78.1808 9.2589C78.1808 14.7822 81.7597 19.1425 87.5329 19.1425ZM165.548 0.0123288H163.398V14.7658C162.078 12.9164 155.131 4.82466 150.981 0.0123288H149.038V18.5096H151.2V3.79315C152.378 5.40411 159.422 13.7137 163.511 18.526H165.552V0.0123288H165.548ZM144.981 0.0123288L133.484 0V18.5096H146.127V16.6562H136.095V10.7014H144.844V8.85206H136.095V1.85342H144.981V0.0123288ZM74.9258 0H72.4926C69.8733 4.91918 67.2296 9.8589 64.5859 15.074C62.2094 9.8589 59.8005 4.91918 57.3957 0H54.6104V18.5096H56.7601V3.43973C57.5374 5.86849 61.4038 13.7795 63.7276 18.5096H64.7721C67.2863 13.7795 71.5372 5.60959 72.2821 3.43973L72.3347 18.5096H74.9298V0H74.9258Z" fill="white"/>
<path d="M206.567 25.6768H54.6064V26.7288H206.567V25.6768Z" fill="white"/>
</g>
<defs>
<clipPath id="clip0_1577_799">
<rect width="206.571" height="48" fill="white"/>
</clipPath>
</defs>
</svg>
