<svg xmlns="http://www.w3.org/2000/svg" viewBox="0 0 97.09 70.44">
  <path d="M39.94,70.41a9.67,9.67,0,0,1-1.67-.66c-.37-.18-.77-.35-.9-.4s-.28-.13-.29-.21,0,0,.07,0a11.14,11.14,0,0,0,1.37-.6c.24-.11,2.44-1.07,3.1-1.33a.91.91,0,0,0,.22-.11,2,2,0,0,0-.88.3c-.78.39-1.3.46-3.67.45-1.6,0-1.8,0-1.86-.07a.17.17,0,0,1-.06-.12,6.19,6.19,0,0,1,1-1.27,3.24,3.24,0,0,1,.86-.66.08.08,0,0,0,.06,0,6.06,6.06,0,0,0-1.91-.76,1.88,1.88,0,0,0-.81.18,6,6,0,0,1-2.05.4l-.66,0-.69-.17c-.38-.09-1.08-.23-1.56-.31a4.46,4.46,0,0,1-1.81-.52,2.9,2.9,0,0,1,.63-.88,3.32,3.32,0,0,1,1.84-.79c.31,0,.64-.14.6-.22a12.28,12.28,0,0,0-1-.75,1.55,1.55,0,0,0-1.34-.21,6.61,6.61,0,0,1-1,.08,4.45,4.45,0,0,1-2.87-.62,7.36,7.36,0,0,0-3.12-.76c-.22,0-.26,0-.26-.08s0-.09,0-.09.08-.08.13-.17a1.69,1.69,0,0,1,.76-.71A3.44,3.44,0,0,1,23.29,59a5.93,5.93,0,0,0,.62-.09,6.82,6.82,0,0,1,.79-.08c.24,0,.29,0,.29-.07a25.73,25.73,0,0,0-2.24-2.19l-.27-.19H22a4.12,4.12,0,0,1-1.44-.2c-1-.33-1.35-.54-3.05-2-.2-.17-.42-.36-.48-.43s-.29-.23-.45-.34a4.66,4.66,0,0,1-.49-.39l-.17-.15.18-.17a1.8,1.8,0,0,1,1.46-.43,7.19,7.19,0,0,1,1.84.39l.59.17s-.28-.44-.64-1A10.16,10.16,0,0,0,17.92,50a1.09,1.09,0,0,0-.57-.3,4.72,4.72,0,0,1-1.8-.8,5.36,5.36,0,0,1-1.5-1.68,8,8,0,0,0-1-1.24c-.58-.61-.78-.9-.8-1.14s0-.14.2-.18a4.51,4.51,0,0,1,1.51,0,7.05,7.05,0,0,1,2,1.07,1.11,1.11,0,0,0,.4.25,5.65,5.65,0,0,0-.19-.62c-.35-1.05-.4-1.78-.13-2.18A.87.87,0,0,1,17,43a1.73,1.73,0,0,1,.7.81A6,6,0,0,1,18.21,45c0,.09,0,.15.07.15a1.19,1.19,0,0,0,.15-.35,6.84,6.84,0,0,1,1-1.87,3.87,3.87,0,0,1,1.08-.81.73.73,0,0,1,0,.33,5.88,5.88,0,0,0,.13,2.09,4.67,4.67,0,0,1,.16,1.4v.63l-.22.63a9,9,0,0,1-.38.9,2.64,2.64,0,0,0-.35.85A5.26,5.26,0,0,0,20.48,50a7.6,7.6,0,0,0,1.06,1.51,6.21,6.21,0,0,0,0-.75,3.78,3.78,0,0,1,.63-2.58,2.26,2.26,0,0,1,.88-.55c.05,0,.09,0,.09,0s0,0,.08,0,.08,0,.09.46a5.85,5.85,0,0,0,.73,2.38c.77,1.72.84,2.33.45,3.75a3.43,3.43,0,0,0-.14.71,6,6,0,0,0,.65.68l1,1c.14.13.28.26.43.38a3.82,3.82,0,0,0-.09-.44c-.36-1.5-.35-2.43,0-3.07a.64.64,0,0,1,.54-.38c.13,0,.19,0,.34.2a2.53,2.53,0,0,1,.31.42,2.54,2.54,0,0,0,.41.52,9,9,0,0,1,1.73,2.24,4.15,4.15,0,0,1,.46,2.29,2.12,2.12,0,0,0,.06.79c.09.17.39.39,1.33.92.47.26.88.52.93.55a.28.28,0,0,0,.11.08,2.25,2.25,0,0,0-.23-.66,11.5,11.5,0,0,1-.69-2.3c-.07-.56.07-.9.39-.9a.4.4,0,0,1,.24.07l.94.88a14,14,0,0,0,1.48,1.3,4.69,4.69,0,0,1,1.42,1.42,5.13,5.13,0,0,1,.39,1.54,2.36,2.36,0,0,0,.1.53c.11.17.3.24,1,.42a6.62,6.62,0,0,1,.84.24c.08,0,.15.06.17,0a10.85,10.85,0,0,0-.86-2c-.29-.45-.4-1-.26-1.16a.65.65,0,0,1,.44-.22,1.18,1.18,0,0,1,.42.31A5.27,5.27,0,0,0,39,61l.21.15a7.42,7.42,0,0,0,.83.47,4.9,4.9,0,0,1,2.5,2.33,3.82,3.82,0,0,0,.37.58,11.43,11.43,0,0,0,2.65.87c1.39.35,1.39.35,2.18.2.64-.13,1.44-.33,3-.75,1.37-.37,1.41-.4,2-1.2a6.33,6.33,0,0,1,2.15-1.9A4.5,4.5,0,0,0,55.87,61a6.44,6.44,0,0,0,.92-1.33c0-.07.05-.11.12-.11s.11,0,.2.37.15.48.2.62a2.23,2.23,0,0,1,.09.72c0,.43,0,.47-.12.66A8.17,8.17,0,0,1,56.41,63l-.39.47.11,0A5.9,5.9,0,0,0,58.46,63c.22-.13.29-.25.41-.71a5.21,5.21,0,0,1,.75-1.58A12.38,12.38,0,0,1,61,59.43a11.09,11.09,0,0,0,2.16-2.09c0-.1.18-.14.18,0a.72.72,0,0,0,.12.25,2.18,2.18,0,0,1,.25,1,4.35,4.35,0,0,1-.55,1.9c-.12.25-.22.47-.23.5A7,7,0,0,0,64,60.34a2.41,2.41,0,0,0,.88-.8,3.71,3.71,0,0,0,.06-.67,3.06,3.06,0,0,1,.73-2.06,13.42,13.42,0,0,0,1.26-2.05c.29-.56.38-.7.46-.71s.09,0,.09,0a1.39,1.39,0,0,0,.21.27,2.34,2.34,0,0,1,.57,1.91c0,.93,0,.9.38.54A11.39,11.39,0,0,0,70,55.44c.13-.2.15-.24.12-.39a5.39,5.39,0,0,1,0-1.33,7.68,7.68,0,0,1,.57-2,13.89,13.89,0,0,0,.69-2c.23-.84.25-.88.48-.68a3.46,3.46,0,0,1,.76.86,4.48,4.48,0,0,1,.4,1.44l.05.44.15-.19a4.37,4.37,0,0,0,1-1.67.84.84,0,0,0-.1-.51,4.32,4.32,0,0,1-.2-2.58,11.55,11.55,0,0,0,.24-2.49c0-1.32.06-1.42.16-1.42a3.89,3.89,0,0,1,.51.21,1.9,1.9,0,0,1,1,1,5.39,5.39,0,0,1,.44,1.3,4.3,4.3,0,0,0,.12.46,2.75,2.75,0,0,0,.19-.28,5.55,5.55,0,0,1,.81-1.17.94.94,0,0,1,1.68.25,2.42,2.42,0,0,1-.09,1.41c-.15.53-.19.75-.13.75s.95-.3,1.14-.38a8.85,8.85,0,0,1,2-.5l.29,0v.22a1.32,1.32,0,0,1-.33.82,15.54,15.54,0,0,1-3.47,3.35c-.28.11-.56.21-.84.29-.74.22-.89.3-1.06.48a13.8,13.8,0,0,0-1.12,1.73,2.55,2.55,0,0,0,.78,0,6.22,6.22,0,0,1,2.1.27l.35.1-.09.3-.08.3-.19,0c-.61.06-1,.26-2,1.12a12.71,12.71,0,0,1-2,1.42,4.08,4.08,0,0,1-1.46.37,3.17,3.17,0,0,0-.66.16,6,6,0,0,0-1.17,1l-.82.77a1,1,0,0,0-.23.26s.2,0,.78,0c1.7,0,2.47.15,2.51.47s-.13.35-1,.67a12.17,12.17,0,0,0-1.87,1,7.29,7.29,0,0,1-1.52.72,2.28,2.28,0,0,1-.86.1A2.49,2.49,0,0,1,67,61.7a1.21,1.21,0,0,0-1.29.17,14.14,14.14,0,0,1-1.68,1,.47.47,0,0,0-.2.1,1,1,0,0,0,.3,0c1.34.12,2.25.52,2.55,1.1a.71.71,0,0,1,.09.53l0,.29h-.36a2.64,2.64,0,0,0-.74.1,10.69,10.69,0,0,1-3.47.63,3,3,0,0,1-1.68-.49,1.4,1.4,0,0,0-.68-.27,4.48,4.48,0,0,0-1.75.48l-1,.38a.36.36,0,0,0-.18.07.61.61,0,0,0,.26.08,2.38,2.38,0,0,1,.38.11,5.22,5.22,0,0,1,2.22,1.54,1.18,1.18,0,0,0,.3.29s0,0,0,.11l0,.11-.38,0L57.18,68c-2.41-.09-2.29-.06-3.07-.57a2.54,2.54,0,0,0-1.24-.55,1,1,0,0,0-.38.08l-.15.08.75.43c1.47.84,2.88,1.68,3.16,1.86a1.65,1.65,0,0,0,.42.21c.13,0,.14.05.14.14v.11L55,70l-1.82.26-.27-.07a5.26,5.26,0,0,1-1.25-.58L50.46,69l-1.62-.85a5.41,5.41,0,0,0-1.53-.69c-.73-.15-1-.08-2.27.61-2.54,1.35-4.59,2.37-4.72,2.37a.55.55,0,0,1-.38,0m.58-.7a5.6,5.6,0,0,0,.55-.27c.19-.11.69-.38,1.11-.59,1.09-.56,2.07-1.07,2.73-1.44a3.47,3.47,0,0,1,2.27-.6,4.25,4.25,0,0,1,1.57.61l1.15.6c.5.24.89.46,1.74,1a7.79,7.79,0,0,0,1.3.63,4.63,4.63,0,0,0,2-.27s-.1-.11-.24-.18-.46-.25-.73-.4c-.54-.32-1.29-.75-2.45-1.4-.7-.39-.9-.53-.85-.56l.47-.16.86-.29a2.2,2.2,0,0,1,1.16-.2,4.93,4.93,0,0,1,1.13.72c.5.36.61.4,1.66.44.47,0,1.17.06,1.54.09l.84.07h.16l-.16-.16A7,7,0,0,0,55,66.18a1.17,1.17,0,0,1-.45-.09A.79.79,0,0,1,54.8,66l1.29-.5,1.69-.64,1-.38c.87-.35,1-.34,2.06.25a3.22,3.22,0,0,0,1.46.36l.5,0,1.52-.38a8.82,8.82,0,0,0,1.52-.44.07.07,0,0,0,0-.06.38.38,0,0,1-.17-.08,2.58,2.58,0,0,0-.37-.19,6.08,6.08,0,0,0-2.07-.3c-1.16-.06-1.51-.09-1.52-.15a.93.93,0,0,1,.3-.2l.53-.29,2.6-1.53.46-.28a2.53,2.53,0,0,1,.64-.31l.69.17a4.81,4.81,0,0,0,1,.19l.38,0L68.8,61c.29-.14.89-.46,1.33-.71s.9-.48,1-.53a.7.7,0,0,0,.24-.13,18.46,18.46,0,0,0-2.78.05l-.75.06s.17-.2.42-.4c.47-.35,1.55-1.32,2.53-2.27a10.24,10.24,0,0,1,.85-.76c.22-.14.24-.14.84-.17a2.19,2.19,0,0,0,.94-.18A11.11,11.11,0,0,0,75,55l.92-.75.8-.66a.2.2,0,0,0,.12-.15c0-.07,0-.07-.54,0a5.13,5.13,0,0,0-1.9.4,4.3,4.3,0,0,1-.57.2s0-.07,0-.15a7.61,7.61,0,0,0,.44-.65c.2-.32.39-.6.41-.63l.75-1.12a7.36,7.36,0,0,1,.8-1.12c.19-.07.39-.13.58-.18a4.56,4.56,0,0,0,1.87-.82,17.34,17.34,0,0,0,1.5-1.47l.63-.67a1.37,1.37,0,0,0,.3-.36,3.15,3.15,0,0,0-1.09.21,7.33,7.33,0,0,0-1.61.8l-.39.25-.1-.09c-.25-.24-.23-.6.09-1.47a3.38,3.38,0,0,0,.37-1.39.41.41,0,0,0-.35-.38c-.4,0-1.34,1.46-1.71,2.65l-.07.24-.2,0c-.39,0-.39,0-.42-1A4.37,4.37,0,0,0,75,44.17c-.13-.21-.31-.37-.36-.32s0,.44,0,.95a11.63,11.63,0,0,1-.21,2.2,2.76,2.76,0,0,0,.15,2.07,1.79,1.79,0,0,1,.22.78c0,.25,0,.29-.26.72a7.14,7.14,0,0,1-.38.62,1.28,1.28,0,0,0-.11.2s-.76,1.15-1.08,1.58c-.17.22-.39.48-.5.6l-.2.2,0-.47a8,8,0,0,0-.05-2c0-.19-.12-.53-.16-.75s-.08-.4-.15-.4-.1,0-.16.28A13.6,13.6,0,0,1,71,52.34q-.18.4-.33.84a6.84,6.84,0,0,0,0,1.75c0,.55,0,.59-.4,1.1a17.18,17.18,0,0,1-3.15,2.79s0,0,0,0a.4.4,0,0,0,.09-.21c0-.1.09-.36.15-.58a5.92,5.92,0,0,0,.25-2.33c0-.4,0-.46-.1-.46s-.13.11-.25.34a6.76,6.76,0,0,1-.87,1.37,2.51,2.51,0,0,0-.71,1.33,2.35,2.35,0,0,0-.08.95c0,.66,0,.77-.31,1a28.37,28.37,0,0,1-3.71,2.31c-.12.07-.23.14-.23.17l0,0c-.06,0-.06-.11,0-.13a1,1,0,0,0,.16-.31,12.93,12.93,0,0,1,.83-1.56,6.07,6.07,0,0,0,.57-1.21A2.78,2.78,0,0,0,63,58.45a2.08,2.08,0,0,0-.45.44,16.22,16.22,0,0,1-1.68,1.52,3.57,3.57,0,0,0-1,1,3.62,3.62,0,0,0-.47,1.15,5.22,5.22,0,0,1-.18.56c-.15.3-.47.49-1.22.73a7,7,0,0,1-2.11.43,7.53,7.53,0,0,0-.83.08c-.1,0-.14,0-.15,0s-.07-.1-.17-.17a.69.69,0,0,1-.18-.16,6.14,6.14,0,0,1,.67-.68,5.46,5.46,0,0,0,1.25-1.42,1.84,1.84,0,0,0,.19-.83s-.14.09-.26.23a6,6,0,0,1-1.37,1,6.1,6.1,0,0,0-1.25.9,9.69,9.69,0,0,0-1,1.27c-.35.54-.43.58-3.07,1.27-.6.15-1.32.35-1.6.43a6,6,0,0,1-.84.19c-.33,0-.34,0-1-.14L45.14,66c-1.1-.3-2.63-.74-2.73-.79s-.32-.34-.7-1c-.12-.24-.25-.48-.39-.71a18.61,18.61,0,0,0-2.79-1.87c-.07,0-.07.12,0,.18a8.41,8.41,0,0,1,.37.87L39.44,64a3.33,3.33,0,0,1,.21.63s-.53-.13-1.15-.31l-1.82-.53a5.5,5.5,0,0,1-.72-.23,6.28,6.28,0,0,1-.14-1.06A2.71,2.71,0,0,0,35.43,61c-.18-.26-.21-.28-1.52-1.38-.51-.42-1.06-.88-1.22-1s-.47-.36-.47-.31l.14.28a12.32,12.32,0,0,1,1.11,3.55c0,.19,0,.21,0,.21s-.09,0-.09,0a5.39,5.39,0,0,0-.52-.3c-.28-.14-.71-.41-1-.57l-1.29-.86c-.46-.29-.87-.57-.93-.62s-.22-.34-.17-1a4.42,4.42,0,0,0-.36-2.24,7.17,7.17,0,0,0-1.56-2,6.57,6.57,0,0,1-.61-.68c-.07-.17-.1-.17-.16,0a10.45,10.45,0,0,0,.39,3.36c.08.36.18.77.22.91a2.24,2.24,0,0,1,.1.35c.06.21-.09.13-.46-.26-.19-.21-.52-.53-.72-.71l-1.05-1c-.38-.37-.87-.82-1.1-1-.51-.44-.65-.65-.62-.94a2.21,2.21,0,0,1,.18-.55A2.89,2.89,0,0,0,24,52.8a4.44,4.44,0,0,0-.7-2.21,5.58,5.58,0,0,1-.61-1.73c0-.29,0-.33-.13-.2a2.68,2.68,0,0,0-.38,1.61c0,.43-.18,2.87-.24,3.2l0,.14-.16-.24c-.22-.31-1-1.48-1.37-2.17-.32-.53-.71-1.13-1.18-1.84L19,49l.36-.68a4.38,4.38,0,0,0,.84-2.53A3.55,3.55,0,0,0,20,44.62c-.09-.36-.18-.76-.19-.87a.54.54,0,0,0-.05-.22c-.06,0-.21.23-.39.62A17.17,17.17,0,0,0,18.3,47a.81.81,0,0,1-.12.29s-.05-.07-.07-.17a11.19,11.19,0,0,0-.8-2.6,2.18,2.18,0,0,0-.62-.93c-.17-.1-.2-.06-.2.3a5,5,0,0,0,.33,1.53c.43,1.32.46,1.51.23,1.73a.52.52,0,0,1-.22.14.48.48,0,0,1-.22-.15,10.61,10.61,0,0,0-1.28-1c-.95-.61-2-1-2.11-.86s0,.09.08.14a14.86,14.86,0,0,1,1.06,1.18l.29.47a4,4,0,0,0,1.81,1.67,3.82,3.82,0,0,0,.91.33,1.49,1.49,0,0,1,1,.49,22.85,22.85,0,0,1,2.18,3.08c.19.33.45.77.58,1s.29.54.24.57a6.43,6.43,0,0,1-.92-.35c-.07-.06-1.24-.51-1.67-.65A4.47,4.47,0,0,0,17,52.93c0,.07.08.14.33.29a6.59,6.59,0,0,1,1,.72,8.32,8.32,0,0,0,1.91,1.42,2.81,2.81,0,0,0,2,.28l.41-.08.17.15.82.79c1.06,1,2.72,2.58,2.94,2.75l.21.15-1,0a12.34,12.34,0,0,0-2.27.18c-1,.16-1,.17-.4.28a6.89,6.89,0,0,1,1.88.66,6.66,6.66,0,0,0,.82.37,9.28,9.28,0,0,0,3,0,2,2,0,0,1,.48-.06,17.44,17.44,0,0,1,2.57,1.59c.38.29.43.36.37.61l0,.18-.28,0-1,.07a2.74,2.74,0,0,0-1.13.21,1.3,1.3,0,0,1-.25.1,2,2,0,0,0-.44.21,1,1,0,0,1-.29.14s-.07,0-.07.1,0,.09.42.16c.23,0,.71.13,1.06.22a7.38,7.38,0,0,0,2.19.3h.75l.51-.17a4.38,4.38,0,0,0,.86-.37c.3-.18.36-.2.48-.18s4.46,1.63,4.46,1.67a.81.81,0,0,1-.31.06,5.69,5.69,0,0,0-1.16.24l-.38.16a4.36,4.36,0,0,0-1.27.91c0,.08,0,.08,1.18.06,1.73,0,2-.05,2.24-.08a3.41,3.41,0,0,0,.93-.37l.68-.33.49,0a6.94,6.94,0,0,1,1.29.1l1,.13.18,0-.61.26-1.48.65c-.48.2-1.17.51-1.54.68l-1.29.55c-.59.23-.82.37-.74.44a11.33,11.33,0,0,0,1.13.49,1.08,1.08,0,0,0,.71,0m6-10-.81,0h-.2V44.57h1.89a10.75,10.75,0,0,1,3.2.23,3.8,3.8,0,0,1,2,1.33,3.62,3.62,0,0,1,.58,2.16,4.15,4.15,0,0,1-.88,3,1.82,1.82,0,0,1-.6.46l-.37.17a14.92,14.92,0,0,0,1.12,2.42c.23.49.6,1.25.81,1.71l.75,1.56.36.74-.75.19-1,.28a.91.91,0,0,1-.32.06s-1.31-2.29-2-3.47c-.27-.47-.69-1.2-.94-1.61l-.43-.75h-.38l-.38,0v6.71h-.51l-1.12,0m2.9-9.22a1.93,1.93,0,0,0,.83-.48,2.23,2.23,0,0,0,.57-2.1,2.56,2.56,0,0,0-1.21-1.28,2.24,2.24,0,0,0-1.17-.23h-.42V50.6l.61,0c.27,0,.53,0,.8-.09m-5.87,8.93-1.11-.18,0-.19c0-.11-.25-1.1-.51-2.21l-.47-2-1.53,0H38.39s-1,2.81-1,2.82a14.07,14.07,0,0,1-1.63-.86S36,56,36.34,55c.84-2.7,1-3.16,1-3.31a.44.44,0,0,0,.06-.16s.3-1,1.21-3.92c.19-.6.48-1.53.64-2.06l.31-1h1.57l0,.11c0,.06.08.32.14.58s.2.82.31,1.26c.19.81.58,2.41.9,3.7.11.41.5,2,.87,3.57s.81,3.37,1,4c.33,1.37.41,1.72.41,1.77s.08.07-1.22-.14m-2.7-7.06c-.14-.55-.63-2.2-.65-2.17a2.33,2.33,0,0,0-.11.28c-.06.13-.14.33-.19.45-.17.37-.6,1.44-.6,1.49s.18,0,.79,0h.78Zm14.36-1V44.54h2.26V57.22l-1,.48-1.13.52-.12.05V51.4Zm3.51,4.73c0-.38.11-1.55.11-1.73s0-.16.11-.16a2.76,2.76,0,0,0,1-.51A15.85,15.85,0,0,1,61.4,53c1.18-.58,1.3-.7,1.11-1.09a2.27,2.27,0,0,0-.18-.25c-.07-.08-.5-.6-.94-1.16s-1-1.23-1.3-1.5c-1.33-1.37-1.71-2.18-1.44-3.07a2,2,0,0,1,1.6-1.36,7.88,7.88,0,0,1,2.08-.11h1.75v2.19H62.7c-.77,0-1.41,0-1.44,0a.62.62,0,0,0-.08.44,5,5,0,0,0,.47.64c.44.53.61.71,1.56,1.76A14.38,14.38,0,0,1,64.45,51a1.92,1.92,0,0,1-.12,2.12A6,6,0,0,1,61.88,55c-.43.21-1,.53-1.35.7a6.7,6.7,0,0,1-1.6.7l-.19,0ZM32.51,54.94l-1-.92-.65-.62v-9h1.72c1.7,0,1.71,0,2.06.12a3,3,0,0,1,1.45.86,2.77,2.77,0,0,1,.73,2c0,2.16-.76,3-3.11,3.3l-.7.1-.14,0v4.42Zm1.65-6.29a1.06,1.06,0,0,0,.6-.56,2.27,2.27,0,0,0,.09-.52,1.16,1.16,0,0,0-.6-1.26,1.65,1.65,0,0,0-.82-.12l-.59,0v2.61l.55,0a2.87,2.87,0,0,0,.77-.11M80.94,41.1v-.23h.15a1,1,0,0,0,.55-.19c.08-.07.08-.2.08-6.83V27.1L81.61,27a.86.86,0,0,0-.54-.18h-.13v-.45H85c4,0,5.38,0,6.08.12a5.94,5.94,0,0,1,3.38,1.36,3.8,3.8,0,0,1,1.2,2.46,9.43,9.43,0,0,1-.08,2.25,3.36,3.36,0,0,1-.92,1.78,4.41,4.41,0,0,1-1.21.83.94.94,0,0,0-.26.14s.15.28.35.59.41.68.48.81.22.39.35.59c.35.57,1,1.69,1.12,1.87a13.21,13.21,0,0,0,.9,1.43.76.76,0,0,0,.54.28c.13,0,.13,0,.13.23v.23H91.87v-.44l.2,0a.54.54,0,0,0,.31-.13c.17-.15.15-.32-.12-.83l-.41-.79c-.28-.54-1.73-3.16-1.91-3.43l-.15-.25H87.41L85,35.4V38c0,2.52,0,2.61.08,2.67a1,1,0,0,0,.55.19h.15v.45H81V41.1Zm9.92-8.76a1.65,1.65,0,0,0,1.26-.92,1.07,1.07,0,0,0,.1-.61,1,1,0,0,0-.13-.65,1.82,1.82,0,0,0-1.15-.87,19.12,19.12,0,0,0-3.15-.09h-2.9V32.4h2.84a23.37,23.37,0,0,0,3.13-.06M15.74,40.92c0-.19,0-.21.11-.23a1.18,1.18,0,0,0,.58-.19l.09-.09V33.66c0-6,0-6.76-.07-6.83a1,1,0,0,0-.6-.22c-.11,0-.11,0-.11-.21v-.2H29.86l.27.09.26.09v1.78l0,1.78h-.2c-.2,0-.2,0-.24-.14a1.43,1.43,0,0,0-.23-.59c-.08-.07-.31-.08-5.13-.08h-5v1.64h3.74c3.46,0,3.75,0,3.87-.07a.76.76,0,0,0,.37-.44c0-.11,0-.12.23-.12H28v4.19h-.2c-.2,0-.2,0-.23-.14a.63.63,0,0,0-.35-.44c-.16-.08-.26-.08-3.91-.08H19.56v4.4H29.91L30,38a1.66,1.66,0,0,0,.2-.64c0-.08,0-.09.22-.09h.2V40.7l-.11.13a.79.79,0,0,1-.27.21c-.17.07-.47.08-7.33.08H15.74Zm28.46,0c0-.2,0-.21.13-.22a1.24,1.24,0,0,0,.53-.18l.11-.08V26.86l-.11-.07a1.06,1.06,0,0,0-.55-.18c-.11,0-.11,0-.11-.21s0-.2.11-.23.75,0,1.53,0h1.42l.31.15a8.23,8.23,0,0,1,1.5,1l1.82,1.33,1.23.9,1.4,1c1.18.86,1.19.86,1.3.79s1.7-1.37,2.21-1.81l1.18-1c.87-.75,1.49-1.29,1.74-1.52a4.24,4.24,0,0,1,1.37-.74,13.62,13.62,0,0,1,2.39,0l.81,0v.39l-.21,0a.67.67,0,0,0-.53.25c-.07.14-.07,13.43,0,13.55a.69.69,0,0,0,.5.23l.22,0v.22l0,.21H59.57l0-.21v-.22l.21,0c.28,0,.36-.07.46-.18l.09-.1V30.65L59.9,31c-.24.19-.59.49-.79.66-.42.36-1.39,1.17-2.35,2l-.75.63c-.14.13-.95.8-1.3,1.09s-.3.22-.36.18-.39-.32-.8-.65L52.49,34l-3.63-2.93-.56-.44s0,9.64,0,9.76.23.22.5.26l.22,0,0,.22v.21H44.2Zm21.21,0v-.21l.22,0a.68.68,0,0,0,.5-.24c0-.1.06-13.39,0-13.53a.72.72,0,0,0-.54-.27l-.21,0v-.4h7c7.28,0,7.22,0,7.52.16l.09,0v3.54h-.2c-.2,0-.2,0-.22-.16a1.41,1.41,0,0,0-.22-.59c0-.05-1-.06-5.11-.07h-5v1.68H73c3.68,0,3.73,0,3.89-.1a.67.67,0,0,0,.29-.31l.12-.24h.39v4.2h-.19c-.19,0-.2,0-.26-.15a.8.8,0,0,0-.4-.45A35.33,35.33,0,0,0,73,33.67H69.22v4.4h5.16c4.81,0,5.16,0,5.23-.07a1,1,0,0,0,.2-.54l0-.21h.4V39c0,2,0,1.88-.34,2.05l-.18.08H65.4ZM32.6,40.84v-.2l.26,0c.3-.06.44-.15.49-.33s0-3.12,0-6.78c0-5.47,0-6.67-.07-6.72a1.21,1.21,0,0,0-.55-.22c-.15,0-.15,0-.15-.22v-.2h5.25v.2c0,.2,0,.2-.15.23-.32.05-.47.1-.55.2s-.08.14-.08,5.73v5.65h5.6l.1-.1a.79.79,0,0,0,.14-.34c0-.13.06-.26.07-.29s.09,0,.22,0h.21V39c0,1.84,0,1.82-.28,2s-.36.07-5.35.09H32.59v-.2ZM6,40.91l-5.13,0H0V37.13H.41v.16a1.12,1.12,0,0,0,.37.7c.15.09.15.09,1.94.09l5.26,0,3.47,0,.12-.11c.11-.09.12-.13.08-.18a.85.85,0,0,0-.26-.11,4.64,4.64,0,0,1-.8-.41c-.33-.2-.61-.37-.63-.37a.78.78,0,0,1-.15-.1c-.12-.09-1.92-1.19-2.25-1.37l-2-1.25-.6-.36L1.48,31.69c-.21-.13-.34-.34-.53-.91a3.66,3.66,0,0,1,0-2.85,2,2,0,0,1,.53-.71,4.4,4.4,0,0,1,1.21-.89L3,26.18H13.17l.24.09.23.09,0,1.22c0,.68,0,1.42,0,1.67l0,.44h-.21c-.13,0-.21,0-.22-.05a2.51,2.51,0,0,0-.06-.3.58.58,0,0,0-.15-.35l-.1-.11H8.75c-4.57,0-4.42,0-4.68.22a.35.35,0,0,0-.05.48c.13.26,0,.19,2,1.4l1.24.78c.47.31,2.65,1.67,2.78,1.74l.68.42c.84.54,1.69,1.07,3.06,1.92l1.3.82a.94.94,0,0,1,.19.32,3.89,3.89,0,0,1-.05,2.79,1.82,1.82,0,0,1-1.31,1.08l-.3.11H11.92c-.92,0-3.57,0-5.92-.05M77.29,25.62a6.22,6.22,0,0,1-2.68-1.48c-.08-.08-.31-.37-.51-.64A6.32,6.32,0,0,0,73,22.31c-.48-.42-.74-.73-.74-.89s0-.14.18-.2A3.65,3.65,0,0,1,74,21a3.16,3.16,0,0,1,1.06.09l.36.08-.24-.52a2.77,2.77,0,0,0-.53-.81,1,1,0,0,0-.78-.41A5.54,5.54,0,0,1,72.28,19a3.57,3.57,0,0,1-.84-.6,12.81,12.81,0,0,0-1.19-.9,6.4,6.4,0,0,1-1.07-.86l-.35-.35.12-.1a3.7,3.7,0,0,1,2.58-.45,1.72,1.72,0,0,0,.39,0,10.07,10.07,0,0,0-1.14-1.38,2.33,2.33,0,0,0-.51-.43A5.11,5.11,0,0,0,68.66,14a3.1,3.1,0,0,1-1,0,5,5,0,0,1-2.29-1.23,9.07,9.07,0,0,0-1.07-.77l-.61-.37a.53.53,0,0,0-.24-.11.08.08,0,0,1-.08-.09s0-.08,0-.08a2,2,0,0,0,.32-.18A3.06,3.06,0,0,1,65,10.63l.63-.11.39,0c.16,0,.16,0,.08-.09l-.38-.32-.33-.25a4.4,4.4,0,0,0-.66-.39.85.85,0,0,0-1,.09,3.2,3.2,0,0,1-.56.27,3.44,3.44,0,0,1-2.16-.35,4.94,4.94,0,0,0-2.82-.66c-.84,0-.87,0-.87-.08s0-.08,0-.08a.61.61,0,0,0,.13-.22,2.78,2.78,0,0,1,1.34-1.3,6.13,6.13,0,0,1,.61-.18l.42-.08s-.13-.11-.51-.3c-1-.5-1.14-.5-1.66,0a3,3,0,0,1-1.22.66,2.52,2.52,0,0,1-1.22-.07,5.12,5.12,0,0,0-1.83,0l-.87.09-.48,0,0-.26a1.69,1.69,0,0,1,.23-.73,2.84,2.84,0,0,1,.93-1L53.63,5l-.17,0a7.25,7.25,0,0,1-1.21-.43,1.53,1.53,0,0,1-.72-.7.87.87,0,0,1,.43-1,2.52,2.52,0,0,1,1.32-.28,2.12,2.12,0,0,1,.71.06l.18.05s-.1-.26-.22-.57a5.34,5.34,0,0,1-.5-1.74l0-.22h.17c.09,0,.17,0,.17,0s.3,0,.74.3A5.07,5.07,0,0,0,55.72,1,4.4,4.4,0,0,1,57.59,2.1a5,5,0,0,1,.52.9,4.43,4.43,0,0,0,.48.85,7.09,7.09,0,0,0,1.08.6l1,.51L61,5.1c.19.08.22.08.2,0A8.32,8.32,0,0,1,61,3.92a10.94,10.94,0,0,1,0-1.81c0-.22,0-.27.09-.27s.12.1.22.35a4.41,4.41,0,0,0,1.06,1.5c.25.25.65.6.88.78s.51.38.6.46.34.26.54.43a3,3,0,0,1,.5.45,2.37,2.37,0,0,1,.25.62c.17.59.22.67.45.88S67.91,9.18,68,9.18a4.42,4.42,0,0,0,0-.63,4.86,4.86,0,0,1,.22-1.61,2.39,2.39,0,0,1,.37-.85l.26.13c.22.13.22.15.5.72.16.32.32.64.38.72L70,8.1c.1.16.41.61.69,1a7.09,7.09,0,0,1,.71,1.07l.18.39,0,.88a4.39,4.39,0,0,0,.09,1,5.28,5.28,0,0,0,1,1.13l.51.53,0-.39a4.71,4.71,0,0,1,.6-1.67,3.84,3.84,0,0,0,.28-.53s0,0,.08,0,.08,0,.08.06a9.14,9.14,0,0,0,.52,1.25c.08.15.31.51.51.81a4.9,4.9,0,0,1,.95,1.91,5.18,5.18,0,0,1,.1,1.84,2.19,2.19,0,0,0,.31,1.83,10.46,10.46,0,0,0,.49.94.87.87,0,0,1,.16.26c.06.16.1.13.15-.12a5.44,5.44,0,0,1,.94-1.74,1.11,1.11,0,0,0,.21-.32c0-.13.13-.12.34.07a.61.61,0,0,1,.23.37c0,.13.14.51.25.86A14,14,0,0,1,79.84,21a7.64,7.64,0,0,1,0,2.24c0,.16-.08.33-.13.49s-.1.27-.19.52c-.39,1.18-.72,1.55-1.36,1.55a2.53,2.53,0,0,1-.85-.21m1.12-.5a3.25,3.25,0,0,0,.55-1,5,5,0,0,0,.27-1.87A7.49,7.49,0,0,0,79,20.08c-.15-.68-.18-.76-.26-.77a.09.09,0,0,0-.12.06s-.13.3-.25.57A3,3,0,0,0,78,21.72a3.43,3.43,0,0,1,0,.64.11.11,0,0,0-.07-.06,1.25,1.25,0,0,1-.28-.36l-.53-.77A18,18,0,0,1,76,19.32a2.65,2.65,0,0,1-.28-1.79c0-.35,0-.89,0-1.21a2.19,2.19,0,0,0-.13-.88,6.66,6.66,0,0,0-.9-1.58c-.24-.37-.47-.7-.49-.75s-.06-.09-.08-.08-.16.48-.18,1.45,0,1-.3,1a13.53,13.53,0,0,1-2.51-2.67,8.91,8.91,0,0,1-.07-1,5.16,5.16,0,0,0-.1-1,12.84,12.84,0,0,0-.89-1.33,10.6,10.6,0,0,1-1.18-2c0-.13,0-.13-.14,0s-.07.19-.06,1.08a4.18,4.18,0,0,0,.09,1.32.76.76,0,0,1,0,.33s0,.05,0,.09,0,.09-.26.07a1.64,1.64,0,0,1-.89-.44l-1.15-1c-.17-.14-.59-.45-.93-.69a7.28,7.28,0,0,1-.72-.55,1,1,0,0,1-.2-.48c0-.2-.08-.38-.08-.41a1.43,1.43,0,0,0-.09-.27c-.07-.22-.13-.27-.68-.73-.33-.28-.75-.63-.94-.77s-.49-.41-.7-.55-.28-.22-.42-.35-.09,0,0,.31a3.78,3.78,0,0,0,.56,1.4c.07,0,.09.18,0,.18s0,0,0,.08,0,.08-.28.08-.31,0-1.38-.51L59.24,5l-.42-.17c-.59-.18-.74-.36-1.14-1.28-.49-1.12-.81-1.38-2.47-2-.34-.13-.69-.28-.77-.32s-.16-.07-.16,0a4.42,4.42,0,0,0,.54,1.29l.12.18a2.11,2.11,0,0,0,.35.38,3.61,3.61,0,0,1,.33.35.23.23,0,0,1,0,.32l-.07,0a3.11,3.11,0,0,1-1.31-.27,2.44,2.44,0,0,0-1-.16c-.47,0-.53,0-.72.11s-.21.13-.22.22.1.3.35.44a6.63,6.63,0,0,0,2.28.47l.44,0v.24a.45.45,0,0,1-.07.31,3.54,3.54,0,0,1-.53.23,5.91,5.91,0,0,0-1.28.58c-.22.15-.42.39-.42.5a3.12,3.12,0,0,0,1.14,0,3.26,3.26,0,0,1,1.32.06c.89.19.84.19,1.31-.09a5.51,5.51,0,0,0,.73-.54c.42-.37.53-.41,1-.3a8.53,8.53,0,0,1,2.76,1.26c.13.13.15.21.1.49l0,.15-.52,0a4,4,0,0,0-1.68.33,1.77,1.77,0,0,1-.45.18.07.07,0,0,0,0,0V8s.13.06.29.08a8.66,8.66,0,0,1,2.39.71c1.13.48,1.37.5,2.19.11.65-.31.81-.33,1.18-.19a11.63,11.63,0,0,1,2.53,1.63c.26.22.27.27.21.62l0,.15h-.85a4.51,4.51,0,0,0-1.32.11l-.46.11.5.38.68.52a6.11,6.11,0,0,0,1.3.83,3.08,3.08,0,0,0,1.34.25,4.13,4.13,0,0,1,2.09.1,10.26,10.26,0,0,1,1.09,1.19l.39.43a5.27,5.27,0,0,1,1,1.34.41.41,0,0,1-.13.23l-.15.17-.55-.18a3.48,3.48,0,0,0-1.6-.25c-.22,0-.43,0-.65.06s-.12.16,0,.22a5.72,5.72,0,0,1,1.23.9c.35.29.74.61.86.68a3.92,3.92,0,0,0,1.75.59,1.36,1.36,0,0,1,1,.38A11.41,11.41,0,0,1,76.42,22c0,.16,0,.17-.07.21a1.38,1.38,0,0,1-1-.2,2.7,2.7,0,0,0-1.47-.33,3.42,3.42,0,0,0-.45,0,3.33,3.33,0,0,0,.51.55,7,7,0,0,1,.79.92,2.93,2.93,0,0,0,1,1,5.25,5.25,0,0,0,1.51.72,2.53,2.53,0,0,1,.73.33,1,1,0,0,0,.26.16s.13-.1.24-.24m-62.13,0c-.34-.2-.41-.38-.41-1a1.85,1.85,0,0,0-.36-1.26c-.7-1.17-.71-1.47-.09-3.4a4.63,4.63,0,0,0,.34-2.08l0-.65.28.15a3.47,3.47,0,0,1,1.62,2.38,1.49,1.49,0,0,0,.13.39s.38-.54.8-1.19l.77-1.17v-.39c0-.21,0-.65,0-1a2.16,2.16,0,0,1,.07-1,4.53,4.53,0,0,1,.54-1.21,16.37,16.37,0,0,0,1.23-1.84c.14-.3.22-.42.31-.46.4-.21.58.11.63,1.06a4.07,4.07,0,0,0,.08.61l0,.13.35-.34A14.16,14.16,0,0,0,24,11.35a4,4,0,0,0,0-1.29,1.9,1.9,0,0,1,0-.92c.24-.71.79-1.31,2.12-2.32.25-.18.5-.39.74-.6s.34-.3.49-.29.39.24.39.78a4.05,4.05,0,0,1-.42,1.74c-.1.13-.1.15,0,.15s.09,0,.09,0a6,6,0,0,1,.73-.45,24.87,24.87,0,0,0,2.22-1.45,1.08,1.08,0,0,0,.17-.7,2.27,2.27,0,0,1,.71-1.71,6.3,6.3,0,0,1,1.61-1.1c.7-.39,1.14-.65,1.17-.68a2.58,2.58,0,0,1,.31-.23,2.05,2.05,0,0,1,.71-.35s.11.1.17.24a1.17,1.17,0,0,1,.11.61,1.22,1.22,0,0,1-.17.72,7,7,0,0,1-.44.75c-.26.38-.33.56-.23.56a.24.24,0,0,0,.11-.06c.41-.14.83-.27,1.25-.37.66-.18,1.22-.34,1.25-.36a.49.49,0,0,0,.08-.21,4.17,4.17,0,0,1,.4-1.12,3.82,3.82,0,0,1,2.08-1.41,4.24,4.24,0,0,0,1.72-1A1,1,0,0,1,41.73,0,.81.81,0,0,1,42,.11c.54.3.53.94,0,2.1-.08.15-.15.31-.22.48a12.92,12.92,0,0,0,1.52-.21A1,1,0,0,1,44.62,3a1.08,1.08,0,0,1,.08.53.84.84,0,0,1-.3.54,3.59,3.59,0,0,1-1.81.66c-.24,0-.2.14.1.34a4.29,4.29,0,0,1,1,1A2.11,2.11,0,0,1,44,7s-2.52.11-3.36.09A3.2,3.2,0,0,1,39.55,7a3.26,3.26,0,0,1-1.11-.68A4.54,4.54,0,0,0,38,5.89a1.47,1.47,0,0,0-.83,0,9.11,9.11,0,0,0-.89.4c-.74.37-.75.38-.23.48a2.68,2.68,0,0,1,1.65,1.07,2.18,2.18,0,0,1,.34.8,3.52,3.52,0,0,1-1.21.13,3.92,3.92,0,0,0-1.23.11c-.3.07-.7.15-.87.17a4.81,4.81,0,0,1-2.1-.17,3,3,0,0,1-.92-.47c0-.06-.17-.08-.17,0s-.53.4-1.18.84L29,10.14c-.07,0-.12.1-.12.12a1.66,1.66,0,0,0,.45.12,4.4,4.4,0,0,1,2.34.82l.09.12s0,0,0,.06a24.63,24.63,0,0,0-2.34,1.06,4.46,4.46,0,0,1-2.8.66c-1.19,0-1.13,0-1.67.43A4.52,4.52,0,0,0,23.72,15c0,.07,0,.07.29.07a5.05,5.05,0,0,0,.68-.07,2.93,2.93,0,0,1,1.63.2c.6.2.65.22.65.31s-.08.09-.26.14a8.3,8.3,0,0,0-2.48,1.47,4.27,4.27,0,0,1-2.47,1.13,2.4,2.4,0,0,0-.53.12c-.43.22-1.47,1.74-1.29,1.86,0,0,0,0,0,0a1.44,1.44,0,0,1,.4-.18,1.9,1.9,0,0,1,.85-.13,2,2,0,0,1,1.45.49,1.51,1.51,0,0,0,.26.18s0,0,0,.08-.05.08-.22.12a4.27,4.27,0,0,0-2.17,1.63c-.84.95-1.08,1.19-1.39,1.35a3.5,3.5,0,0,1-1.19.36c-.54.07-.54.06-.67.6a.62.62,0,0,1-.66.51.61.61,0,0,1-.41-.13m.58-.45a7.28,7.28,0,0,1,.22-1.13.29.29,0,0,1,.18,0,3.65,3.65,0,0,0,.46.07,1.27,1.27,0,0,0,.72-.13c.74-.27.73-.26,1.58-1.24A9.47,9.47,0,0,1,21.32,21c.38-.3.41-.34.41-.42s-.51-.16-.75-.13a2.75,2.75,0,0,0-1.32.8c-.43.39-.7.59-.77.55a.42.42,0,0,1-.24-.33A10.19,10.19,0,0,1,20,18.94c.78-1.09.87-1.17,1.61-1.22a1.92,1.92,0,0,0,.82-.18l.64-.25a1,1,0,0,0,.28-.14s.71-.59.95-.77a6.11,6.11,0,0,1,1-.63s.07,0,.07-.1,0-.11-.17-.11a11.59,11.59,0,0,0-1.75.28c-.56.14-.68.15-.76.11s-.29-.3-.25-.31a5.85,5.85,0,0,0,.38-.49,10.41,10.41,0,0,1,2.25-2.34l.31-.19,1.17,0,1.17,0,.42-.14a4.05,4.05,0,0,0,1.18-.58,3.39,3.39,0,0,1,1-.48c.16,0,.18,0,.18-.14s.09-.11-1-.27A5,5,0,0,0,28,10.88c-.94.06-.93.06-.93,0a3.64,3.64,0,0,1,.49-.36l.75-.52,1.67-1.17a5.11,5.11,0,0,0,.51-.37,2.4,2.4,0,0,1,1-.57c.05,0,.09,0,.09,0s.12-.07.29,0,.66.38.87.48a3.52,3.52,0,0,0,1.25.2,2.83,2.83,0,0,0,1.41-.18,2.3,2.3,0,0,1,1-.12,5,5,0,0,0,.77,0A1.43,1.43,0,0,0,37,8a1.38,1.38,0,0,0-.48-.35,5.76,5.76,0,0,0-1.32-.41,5.16,5.16,0,0,1-.67-.2c-.16-.08-.27-.22-.25-.29a21.38,21.38,0,0,1,2-1.06,5.54,5.54,0,0,1,1.33-.41c.32,0,.35,0,.56.06a3.12,3.12,0,0,1,.59.44,2.23,2.23,0,0,0,1,.67c.91.09,1.83.13,2.75.13a1.62,1.62,0,0,0,.72-.1,2.63,2.63,0,0,0-.54-.61A4.57,4.57,0,0,0,41.52,5l-.19,0V4.42l.36-.06A10.09,10.09,0,0,0,43.32,4,1.23,1.23,0,0,0,44,3.64c.24-.25.29-.36.21-.5L44.14,3l-.59,0c-.65,0-2.55.24-3,.34-.07,0-.08,0-.06-.12a2.89,2.89,0,0,1,.75-1.08c.45-.48.59-.8.5-1.14a1.07,1.07,0,0,0-.07-.19,1.87,1.87,0,0,0-.25.19,6.1,6.1,0,0,1-1.55.78,4.07,4.07,0,0,0-1.43.78,2,2,0,0,0-.62,1.13c-.14.63-.06.57-1.28,1a30.23,30.23,0,0,1-3.07,1s.13-.32.28-.67a6.55,6.55,0,0,1,.59-1.11A3.16,3.16,0,0,0,34.84,3a.17.17,0,0,1,.06-.11c.08-.07.09-.21,0-.21a3.38,3.38,0,0,0-.74.36c-.14.09-.55.31-.9.5-1.32.68-1.78,1.09-2,1.78a4.43,4.43,0,0,0-.09.72,2.67,2.67,0,0,1-.11.75c-.09.24-.29.37-3.06,2.07l-.94.55-.56.31V9.44a2.15,2.15,0,0,1,.34-1.21,3.54,3.54,0,0,0,.41-1.14l0-.21h-.12a.16.16,0,0,0-.15.06S27,7,27,7A5.3,5.3,0,0,0,25.5,8.14a2.56,2.56,0,0,0-1,2.63c0,.38.08.76.09.82s0,.14-.24.3A7.73,7.73,0,0,0,23,13.3a14.77,14.77,0,0,1-1.2,1.42l-.23.22-.13-.07-.13-.06,0-.3c0-.16.05-.43.08-.6a6.82,6.82,0,0,0,.08-.79c0-.46,0-.48-.05-.48a.19.19,0,0,0-.14.09,4.51,4.51,0,0,1-.32.41,4,4,0,0,0-1.12,3.36c0,.17.07.43.08.58l0,.26-.38.61c-.39.62-1.52,2.3-1.81,2.69-.16.22-.29.29-.47.24s-.25-.18-.27-1a3,3,0,0,0-.13-1,2.85,2.85,0,0,0-.34-.73c-.15-.19-.21-.15-.28.23s-.37,1.46-.59,2.15a2.27,2.27,0,0,0-.15.9A1.77,1.77,0,0,0,16,22.64a1.77,1.77,0,0,1,.41,1.23,3.64,3.64,0,0,0,0,.57c0,.2.19.36.32.36s.12,0,.12-.13M62,23l-.67,0h-.17V18.31c0-2.56,0-4.65,0-4.65l.92.47.9.47v4.22L63,23h-.26L62,23m-8.37-6.34V10.33l.11,0,.86.27a18,18,0,0,1,2.76.94A5.22,5.22,0,0,1,59,12.74a2.3,2.3,0,0,1,.75,1.86A4.15,4.15,0,0,1,59.31,17,3.55,3.55,0,0,1,58.53,18l-.23.22.28.64.65,1.45c.21.45.44,1,.54,1.15.22.47.65,1.43.65,1.47a5.43,5.43,0,0,1-.9,0h-.9l-.18-.41c-.44-1-1-2.23-1.13-2.47l-.39-.86-.26-.58H55.39V23H53.62V16.66Zm3.18-.54a1.63,1.63,0,0,0,.73-.67,1,1,0,0,0,.1-.62,1,1,0,0,0-.13-.68,1.54,1.54,0,0,0-.79-.74A2.13,2.13,0,0,0,56,13.3l-.53,0v3l.57,0a1.57,1.57,0,0,0,.8-.12M31,19.14V15.32l.44-.28a4.42,4.42,0,0,0,.46-.3l.29-.19.63-.41.37-.23v1.28l0,1.27H35.1V12.53l.5-.25,1.75-.82.13-.05V23H35.1V18.87l-.94,0h-.93V23H31V19.14ZM38.64,17V11.12L39.1,11l1.82-.56,1.9-.61a5.32,5.32,0,0,1,.57-.16s0,.56,0,1.23l0,1.23H41v2.51h2.47v1.2l0,1.21H41v3.61h2.51V23H38.64Zm6-.62V9.88h1.74l1.66,3.31,1.65,3.31V9.8h2.14V23H49.75l-.12-.25c-.1-.24-1.05-2.24-1.92-4-.18-.38-.4-.82-.49-1l-.16-.3V23H44.68Z" fill="#fff"/>
</svg>
