<svg xmlns="http://www.w3.org/2000/svg" version="1.1" xmlns:xlink="http://www.w3.org/1999/xlink" width="356.26" height="332.74"><svg id="SvgjsSvg1128" data-name="Camada 2" xmlns="http://www.w3.org/2000/svg" xmlns:xlink="http://www.w3.org/1999/xlink" viewBox="0 0 356.26 332.74">
  <defs>
    <style>
      .cls-1 {
        fill: url(#linear-gradient);
      }

      .cls-2 {
        fill: #4c0e40;
      }
    </style>
    <linearGradient id="SvgjsLinearGradient1127" x1="1097.22" y1="-2288.87" x2="1364.62" y2="-2288.87" gradientTransform="translate(225.17 2756.52) rotate(-28.71)" gradientUnits="userSpaceOnUse">
      <stop offset="0" stop-color="#f8d735"></stop>
      <stop offset=".45" stop-color="#f15d43"></stop>
      <stop offset=".88" stop-color="#7d2f66"></stop>
    </linearGradient>
  </defs>
  <g id="SvgjsG1126" data-name="Layer 1">
    <g>
      <polygon class="cls-2" points="227.21 15.65 213.28 0 198.27 15.21 198.27 35.37 179.2 35.37 179.2 15.83 164.77 0 149.24 14.93 149.24 35.37 130.18 35.37 130.18 14.87 116.65 0 99.94 16.04 99.94 37.99 127.92 86.02 227.51 227.32 227.51 59.31 227.51 40.22 227.51 29.79 227.51 16 227.51 15.65 227.21 15.65"></polygon>
      <circle class="cls-2" cx="115.98" cy="155.31" r="6.51"></circle>
      <circle class="cls-2" cx="206.88" cy="304.19" r="5.44"></circle>
      <circle class="cls-2" cx="352.38" cy="179.12" r="3.87"></circle>
      <path class="cls-2" d="M287.58,38.36c.18.04,1.06,1.43,2.33,1.67,3.95.74,7.97-1.36,9.76,4.37-2.32,1.76-1.99-1.57-4.65-2.38-1.51-.46-3.63-.08-4.96.83-.29,1.06,12.39,14.82,9.79,19.08-8.75,9.86-17.28-3.91-4.79-8.17l-8.76-14.21,1.29-1.19Z"></path>
      <path class="cls-1" d="M140.33,106.03c-3.46.29-6.53,2.22-7.26,7.01-.76,4.93,2.52,5.7-4.74,8.38l-10.68-19.5c5.04-4.51,6.07-1.07,9.91-.53,7.45,1.04,10.78-8.11,6.57-13.78-5.77-7.77-18.23-1.2-13.36,7.66l-5.18,2.9-27.17-51.41-3.62,2.1,54.02,102.38c1.18,1.37-2.77,6.47-3.4,6.24-9.66-20.55-20.28-40.55-30.45-60.85-3.55-7.09-7.13-14.26-10.75-21.41-5.98-11.8-12.31-28.32-19.38-39.09-4.32-6.58-9.7-10.12-17.47-11.33-21.64-3.36-26.8,19.74-41.37,29.44-4.64,3.09-10.4,5.54-16,6.79l2.09,3.82c6.4-1.53,12.71-4.4,18.09-8.13,10.4-7.21,15.66-21.72,27.42-26.48,8.49-3.44,18.61.6,23.45,8.13,5.37,8.35,10.25,21.55,14.91,30.65,14.04,27.44,28.6,54.73,42.89,81.81,1.49,2.82,2.27,7.33,3.69,10.37-14.89,26.66-28.92,57.93-22.75,89.24,9.9,50.24,58.86,54,98.21,36.89,1.18-.51,2.45-.88,3.73-.93l2.92,5.09-4.15,1.3,1.22,2.25,3.74-2,6.02,7.37-.12,1.52c1.09-.05,14.25,10.65,17.75,12.52,44.19,23.74,97.79-10.1,88.74-61.36-.82-4.66-5.28-22.75-9.24-24.29l-2.16,1.09c9.96,22.98,13.05,48.13-4.26,68.38-22.66,26.5-61.73,24.75-85.38,1.18l17.25-9.44c-.68-1.28-.46-1.87-1.85-.87-5.64,4.07-10.33,6.87-16.95,9.16l-4.88-7.02c11.49-6.06,22.79-12.41,33.2-20.2,13.56,15.98,30.8-1.16,20.83-17.23l9.61-10.11c-.64-1.28-.51-1.86-1.89-.87-1.63,1.17-8.36,9.24-9.28,8.95l-3.17-5.96,28.48-33.23c1.76,5.17,3.93,6.42.23,11.08l3.54-2.42,5.04,11.86-6.9,9.64c.53,1.43,2.1-.19,2.75-.77,2.02-1.78,2.96-4.42,5.41-5.66,16.86,32.67,2.21,71.7-37.6,73.69-13.11.66-20.82-3.97-31.9-9.44-.53-.26-2.29-2.24-2.71-.34-.18.82,9.03,5.62,10.44,6.28,31.88,14.95,69.51-3.42,70.84-40.15.41-11.42-3.46-22.17-7.41-32.71,5.46-5.21,8.29-11.36,12.91-17,5.4,14.91,11.99,29.93,12.07,46.03.29,54.36-61.3,82.19-105.18,54.75l-3.06,3.04c4.26,1.88,6.88,4.65,11.34,6.44,54.29,21.75,112.2-20.58,99.84-79.74-2.53-12.1-7.88-23.48-12.15-35.04,5.29-9.73,10.66-19.41,14.94-29.64,1.47-3.51,8.33-21.01,8.13-23.45-.04-.5-.55-1.35-.97-.91-5.07,12.74-9.34,25.98-15.7,38.24-.72,1.38-6.96,12.81-7.65,12.56l-8.63-27.39c10.02-20.53,26.29-52.08,14.19-74.63-2.07-3.85-7.11-7.64-8.82-10.7-1.31-2.32-1.67-6.25-2.98-9.08-2.16-4.67-5.13-9.54-8.39-13.46-1.39.51.18,2.22.69,3.01,3.66,5.58,6.39,8.7,8.06,15.61.19.8.74,1.79-.32,2.09-11.86-9.92-28.44-14.14-43.69-14.28l-6.22-.29c-24.12,1.04-45.42,12.25-64.42,26.5l-5.42,4.78h0c-3.84,4.26-16.93,16.52-19.71,19.69-2.42,2.77-5.07,7.59-7.28,9.84-1.16,1.19-1.13.31-1.71-.49-1.27-1.74-2.67-6.22-4.28-7-.84-.41-2.16.58-2.94.44-.8-.15-2.34-1.91-4.01-2.47-7.82-2.57-11.8,5.06-9.65,11.73-3.3,1.81-5.41,6.87-8.41,2.64-4.13-5.83-5.74-14.24-9.95-20.28,4.09-6.45,6.78-.93,11.12-.94,7.34-.03,13.53-15.39-1.34-18.24M140.74,110.23c3.94,1.51,5.92,5.62,3.37,9.23-.74.68-2.54,1.12-3.48.84-3.9-1.18-6.21-10.09.12-10.07ZM124.23,89.67c4.25-4.7,10.27,3.52,7.16,6.56-4.07,3.97-9.68-3.77-7.16-6.56ZM123.17,273.74c-22.74-32.87-7.26-77.58,11.78-108.19l9.44,17.25c.09,1.28.21,2.21.37,2.88-14.03,29.07-19.24,82.13,21.51,91.4,8.65,1.97,16.62,1.29,25.27-.26l6.11,10.34c-23.32,9.35-58.65,9.47-74.49-13.43ZM150.05,194.52c-.05,1.46,8.35,15.37,9.87,18.32,2.46,4.77,3.44,11.08,6.8,15.73.69.96,1.22,1.58,3.32,5.6q1.79,3.43,3.49,7.21c4.84,10.74,11.9,21.41,16.73,32.29-13.76,2.29-29.6,2.04-40.01-8.54-18.8-19.1-12.75-48.51-5.65-71.25.8-2.56,2.49-3.91,1.64-6.22.29.36.81,1.06,1.91,2.76,1.06,1.66,1.91,3.45,1.89,4.1ZM202,286.31c-1.81-.19-5.31-7.87-5.94-10.02l8.31-3.48,5.36,9.69-7.73,3.8ZM202.74,269.76l-9.08,3.01c-.5-1.52-.71-3.04-1.44-4.51-7.51-15.04-15.82-29.76-23.58-44.68-2.08-4-10.38-19.19-12.28-23.71l-7.73-16.47-.33.27c.13-.18.24-.28.33-.27l4.35-6.28,49.76,92.63ZM150.73,173c.13.63-3.3,6.96-4.15,6.65-3.75-5.76-5.56-12.39-8.92-18.35l3.83-5.18,9.24,16.87ZM314.76,175.28c-1.39-.6-2.57-18.45-2.26-21.12,1.31-11.11,9.52-23.15,7.82-34.87l2.01-17.36c18.14,21.59,3.58,52.02-7.57,73.35ZM301.11,136.84c-18.46,6.76-50.52,5.54-68.77-1.74-10.37-4.14-23.85-13.27-9.92-23.01,18.7-13.08,68.05-11.51,86.61,1.96,14.22,10.32,4.13,18.38-7.92,22.79ZM153.15,135.24c6.1-3.63,12.57,5.27,6.57,8.96-4.75,2.93-9.65-4.66-6.57-8.96ZM144.01,151.82c5.29-4.97,7.77-5.1,14.25-2.44l-4.33,6.29c-1,1.25.94,1.85,1.35,1.64,2.13-1.05,9.36-12.3,10.17-15.28l1.48,3.58-13.89,22.7-9.03-16.5ZM159.61,180.32c4.24-3.43,3.83-.79,7.09.53,5.38,2.18,12.87-2.28,13.65-8.01,2.04-14.92-19.9-15.38-20.2-2.13-.06,2.54,2.57,6.32-2.22,5.68-3.91-3.49-2.24-5.35-.42-8.97,1.04-2.08,11.67-19.64,12.76-19.25l24.95,36.88-2.73,2.51c-1.26.28-5.48-3.14-8.76-2.47-17.66,3.59-5.89,29.46,8.44,18.28,5.03-3.93,1.33-14.69,5.47-14.2l15.56,21.79-.47,1.6c-4.28,1.5-6.91,4.14-9.82,7.5l1.13,2.21,6.2-2.91c1.46,10.94-12.07,13.6-14.26,3.39-.19-.9,1.1-10.44-1.38-7.96-9.16,9.2,7.79,26.6,17.17,13.21,4.35-6.21-3.86-10.49,4.08-12.75l16.43,23.13c-.81,5.81-5.59.79-6.53,1.3h0c-7.85-2.76-9.41.88-12.11,3.68l12.41-.46-3.56,5.82,2.25,1.27,4.73-2.63c2.86,5.5-1.09,10.33-7.05,10.11-4.51-.16-6.05-5.3-10.74-5.25,1.71,4.84,4.73,6.95,8.39,10.01l-13.21,5.35-47.24-87.26ZM166.21,166.13c6.2-5.1,13.92,5.43,7.93,9.97-6.23,4.73-13.45-5.43-7.93-9.97ZM191.02,193.85c.82,1.34-.31,5.2-1.63,6.23-7.54,5.88-13.55-5.88-8.14-10.02,1.15-.87,3.69-1.13,4.94-.5.29.14,4.66,4.01,4.83,4.28ZM232.05,244.94l2.95-1.49,3.98,5.42-4.74,3.64c-.85-2.64-.18-5.2-2.19-7.57ZM240.27,252.23l1.76.54,5.52,8.04c-10.58,7.8-21.89,14.56-33.67,20.4l-5.34-9.75,31.73-19.23ZM251.92,269.96c-4.76,2.83-9.3,6.91-13.94,9.78-2.61,1.61-18.47,10.81-19.88,9.23l-2.58-4.77c11.71-6.05,22.99-12.64,33.66-20.33l3.33,4.34-.59,1.75ZM257.4,268.11l13.35-11.21c7.53,10.58-4.59,22.7-13.35,11.21ZM266.22,248.64l3.65,6.73-12.31,10.45c-10.65-6.12,5.22-11.25,8.65-17.18ZM264.06,246.43l-13.16,11.58-5.98-9.3,13.57-12.4c1.56,2.08,6.56,7.59,5.57,10.13ZM256.5,232.88c.34,1.98-11.62,11.5-14.08,13.2l-69.28-102.44c7.89-10.79,17.15-20.69,27.23-29.51l4.63-4.01c16.23-12.94,35.31-23.53,56.13-26.12,2.93-.37,5.31-.79,7.32-.67l8.83.37c10.86.32,23.5,3.57,32.96,8.94,1.8,1.02,7.97,4.81,8.89,6.09,1.67,2.3.76,15.81-.79,19.02-2.2-3.98-5.91-6.65-9.65-9.01-4.58-2.89-12.49-4.4-15.65-6.8l-7.9-1.18s.03.04.04.06c-18.78-3.89-56.6-3.76-69.81,11.72-8.05,9.44,1.11,16.91,5.07,26.05,6.51,14.99,8.96,34.29,15.2,50.42,5.84,15.08,13.34,29.54,20.84,43.88ZM224.57,136.95c26.51,10.55,57.76,12.69,84.6,1.44-1.6,5.46-.37,12.87-1.77,18.05-1.09,4.03-5.75,13.07-7.84,17.23-2.45,4.89-5.31,9.61-8.04,14.33-.25-3.65-3.19-10.52-2.66-13.68.36-2.1,3.25-5.85,4.22-8.21.84-2.03,6.35-15.1,5.99-15.87-.3-.64-1.34-.75-2.07.64-1.3,2.48-2.32,6.91-3.49,9.69-1.31,3.1-2.85,6.97-4.96,9.56-.68-.22-.9-13.22-.54-14.32.62-1.86,3.35-2.29,2.9-4.5-15.41,4.02-32.71,3.69-47.86-1.08-1.2,3-.65,6.45.73,9.33l1.21-7.44c7.46,1.86,15.87,3.34,23.57,3.43,4.11.05,13.66-1.72,16.13-1.32,3,.5,1.2,6.06,1.26,8.53.1,4.01.28,7.97.95,11.93-1.38,4.39-16.55,24.19-16.51,26.35,0,.43.55,1.36.97.91l15.97-23.35,2.87,12.8c-8.94,13.28-17.55,27.19-29.66,37.93-18.59-28.52-26.48-60.32-35.97-92.39ZM267.93,242.84l-5.75-10.5c11.68-9.48,18.88-23.25,27.93-34.98.46-.6.86-2.17,1.91-1.33l4.03,11.25c.59,3.44-23.3,32.14-28.12,35.55ZM321.08,213.34c.84,1.76-3.24,6.91-4.27,6.62l-6.93-21.54c-.45-.13-2.96,3.05-3.19,3.63-.61,1.55,5.93,18.99,7.12,19.55l1.41-2.72,1.14,2.21c-2.36,1.13-1.64,3.39-2.49,4.65-.57.84-4.89,7.01-6.07,4.51-3.02-6.37-5.35-13.22-8.57-19.52l12.94-22.35,8.9,24.95ZM297.55,206.14c-1.31-4.67-4.09-9.38-4.3-14.16l14.6-27.53c0,5.22,3.87,14.76,2.86,19.41-.31,1.42-11.96,22.79-13.15,22.29Z"></path>
    </g>
  </g>
</svg><style>@media (prefers-color-scheme: light) { :root { filter: none; } }
@media (prefers-color-scheme: dark) { :root { filter: none; } }
</style></svg>